<svg id="visual" viewBox="0 0 1440 913" width="1440" height="913" xmlns="http://www.w3.org/2000/svg" xmlns:xlink="http://www.w3.org/1999/xlink" version="1.1"><rect x="0" y="0" width="1440" height="913" fill="#FFA585"></rect><path d="M1301 913L1229.7 875C1158.3 837 1015.7 761 950.2 685C884.7 609 896.3 533 887.3 456.8C878.3 380.7 848.7 304.3 755.3 228.2C662 152 505 76 426.5 38L348 0L1440 0L1440 38C1440 76 1440 152 1440 228.2C1440 304.3 1440 380.7 1440 456.8C1440 533 1440 609 1440 685C1440 761 1440 837 1440 875L1440 913Z" fill="#25b3f1" stroke-linecap="round" stroke-linejoin="miter"></path></svg>