<svg id="visual" viewBox="0 0 1920 1080" width="1920" height="1080" xmlns="http://www.w3.org/2000/svg" xmlns:xlink="http://www.w3.org/1999/xlink" version="1.1"><rect x="0" y="0" width="1920" height="1080" fill="#FFA585"></rect><path d="M0 262L40 256.5C80 251 160 240 240 268.2C320 296.3 400 363.7 480 387C560 410.3 640 389.7 720 425C800 460.3 880 551.7 960 550.5C1040 549.3 1120 455.7 1200 439.3C1280 423 1360 484 1440 527C1520 570 1600 595 1680 593.2C1760 591.3 1840 562.7 1880 548.3L1920 534L1920 0L1880 0C1840 0 1760 0 1680 0C1600 0 1520 0 1440 0C1360 0 1280 0 1200 0C1120 0 1040 0 960 0C880 0 800 0 720 0C640 0 560 0 480 0C400 0 320 0 240 0C160 0 80 0 40 0L0 0Z" fill="#f1f5f8" stroke-linecap="round" stroke-linejoin="miter"></path></svg>