<svg width="974" height="906" viewBox="0 0 974 906" fill="none" xmlns="http://www.w3.org/2000/svg">
<path fill-rule="evenodd" clip-rule="evenodd" d="M461.758 474.139C461.758 474.139 425.623 478.307 406.301 473.14C386.979 467.972 375.824 451.156 375.824 451.156C375.824 451.156 363.665 425.438 362.335 421.679C357.988 409.397 357.506 397.326 358.338 389.204C359.967 373.292 375.824 347.736 375.824 347.736C375.824 347.736 378.083 329.967 383.319 316.26C388.554 302.552 404.302 276.79 404.302 276.79L405.801 220.333C405.801 220.333 412.446 200.949 418.292 192.854C424.138 184.759 431.781 184.36 431.781 184.36C431.781 184.36 438.231 183.748 443.772 187.358C449.313 190.968 464.756 205.844 464.756 205.844C464.756 205.844 477.509 183.588 493.734 171.87C509.958 160.152 536.7 153.884 536.7 153.884L539.199 148.888L539.5 119.5L531.205 47.9648H520.213L537.2 22.9839C537.2 22.9839 539.474 14.7273 541.697 10.993C543.919 7.25876 550 2.49992 550 2.49992C550 2.49992 550.111 1.12005 560 0.999917C569.889 0.879786 591.159 1.99992 591.159 1.99992C591.159 1.99992 600.239 4.0854 603.649 7.49571C607.059 10.906 609.644 21.9846 609.644 21.9846L634 47.9999L618.637 48.964L617.138 96.4277C617.138 96.4277 613.933 108.638 611.143 112.915C608.354 117.192 602.15 119.41 602.15 119.41L577.669 120.909L574.671 149.887L576.67 153.884C576.67 153.884 595.425 159.245 602.15 162.377C612.917 167.392 622.656 174.654 630.129 187.358C635.36 196.252 640.774 208.538 648.115 221.332C657.809 238.229 683.587 280.787 683.587 280.787L700.574 295.775L709.068 312.762L729.552 328.25L739.045 297.274C739.045 297.274 710.067 253.308 710.067 241.317C710.067 237.976 712.085 234.826 714.064 232.823C716.819 230.034 720.603 228.32 727.054 228.826C733.505 229.332 739.544 236.82 739.544 236.82L797 391.202C797 391.202 788.423 419.314 782.012 433.17C775.6 447.027 763.026 460.649 763.026 460.649C763.026 460.649 744.908 470.812 732.55 472.64C720.191 474.468 692.081 469.143 692.081 469.143C692.081 469.143 682.236 464.637 679.091 460.649C671.316 450.793 668.064 438.292 664.102 431.671C655.755 417.722 654.11 405.691 654.11 405.691L628.13 321.256L515.717 317.758L505.225 403.193C505.225 403.193 496.622 438.022 486.739 454.154C476.855 470.286 461.758 474.139 461.758 474.139Z" fill="white"/>
<path fill-rule="evenodd" clip-rule="evenodd" d="M562.814 469.319L562.651 469.244L562.472 469.251L521.972 470.751L521.937 470.752L521.903 470.756L510.467 472.248L474.031 470.751L474.015 470.75H474H469H468.878L468.763 470.788L458.263 474.288L458.028 474.367L457.886 474.569L458.5 475C457.886 474.569 457.886 474.569 457.886 474.569L457.885 474.57L457.884 474.572L457.88 474.578L457.866 474.599C457.853 474.616 457.836 474.642 457.814 474.675C457.77 474.74 457.708 474.835 457.63 474.957C457.475 475.201 457.259 475.553 457.013 475.993C456.522 476.871 455.905 478.11 455.406 479.543C454.419 482.379 453.834 486.16 455.865 489.398C457.884 492.62 461.359 492.765 465.003 492.75C465.664 492.747 466.737 492.875 467.685 493.012C468.045 493.064 468.377 493.116 468.651 493.161L468.432 494.643C468.219 496.086 467.905 498.209 467.502 500.927C466.698 506.363 465.539 514.177 464.123 523.692C461.29 542.723 457.429 568.556 453.314 595.768C445.081 650.2 435.833 710.126 431.762 732.173C427.687 754.245 422.311 787.165 417.954 814.56C415.776 828.26 413.852 840.58 412.473 849.475C411.783 853.923 411.229 857.514 410.848 859.994C410.658 861.234 410.51 862.196 410.411 862.847L410.297 863.589L410.268 863.778L410.261 863.826L410.259 863.838L410.259 863.841C410.259 863.841 410.259 863.842 411 863.955L410.259 863.842L410.127 864.705H411H463H463.604L463.733 864.114L544.61 493.267L556.034 492.749L556.099 492.746L556.163 492.732L556 492C556.163 492.732 556.163 492.732 556.163 492.732L556.164 492.732L556.167 492.731L556.174 492.73L556.199 492.724C556.219 492.719 556.248 492.712 556.285 492.703C556.358 492.684 556.463 492.657 556.596 492.619C556.862 492.543 557.239 492.426 557.695 492.259C558.607 491.925 559.844 491.388 561.148 490.573C563.755 488.944 566.671 486.174 567.73 481.672C568.784 477.194 567.601 474.091 566.098 472.109C565.355 471.13 564.546 470.439 563.921 469.992C563.608 469.768 563.34 469.603 563.146 469.493C563.048 469.438 562.97 469.397 562.913 469.368C562.885 469.353 562.863 469.342 562.846 469.334L562.825 469.324L562.819 469.321L562.816 469.32L562.815 469.319C562.815 469.319 562.814 469.319 562.5 470L562.814 469.319ZM458.895 475.763C458.927 475.713 458.955 475.669 458.98 475.63L469.122 472.25H473.985L510.469 473.749L510.533 473.752L510.597 473.744L522.063 472.248L562.332 470.757C562.354 470.769 562.378 470.783 562.405 470.798C562.559 470.885 562.782 471.021 563.048 471.211C563.579 471.592 564.27 472.182 564.902 473.016C566.149 474.659 567.216 477.306 566.27 481.328C565.329 485.326 562.745 487.806 560.352 489.302C559.156 490.049 558.018 490.543 557.18 490.85C556.761 491.004 556.419 491.109 556.185 491.176C556.068 491.21 555.978 491.233 555.918 491.248L555.895 491.254L543.966 491.795L543.39 491.821L543.267 492.384L462.396 863.205H411.873L411.893 863.074C411.993 862.423 412.14 861.461 412.331 860.222C412.712 857.743 413.265 854.152 413.955 849.705C415.334 840.811 417.257 828.493 419.435 814.796C423.792 787.4 429.166 754.497 433.238 732.445C437.314 710.369 446.566 650.412 454.797 595.993C458.913 568.779 462.774 542.944 465.606 523.913C467.022 514.397 468.181 506.583 468.986 501.147C469.389 498.429 469.703 496.306 469.916 494.862L470.159 493.216L470.221 492.796L470.237 492.689L470.241 492.663L470.242 492.656C470.242 492.654 470.242 492.654 469.5 492.544L470.242 492.654L470.348 491.935L469.633 491.806L469.5 492.544L469.633 491.806L469.633 491.806L469.632 491.806L469.63 491.806L469.623 491.804L469.596 491.8L469.495 491.782C469.407 491.766 469.28 491.745 469.124 491.719C468.811 491.666 468.379 491.597 467.901 491.528C466.96 491.391 465.784 491.247 464.997 491.25C461.232 491.266 458.658 491.03 457.135 488.602C455.471 485.947 455.886 482.728 456.823 480.037C457.285 478.707 457.861 477.55 458.323 476.725C458.553 476.313 458.753 475.985 458.895 475.763ZM588.099 469.757L588.019 469.746L587.938 469.753L588 470.5C587.938 469.753 587.937 469.753 587.937 469.753L587.935 469.753L587.933 469.753L587.925 469.754L587.904 469.756C587.887 469.758 587.864 469.76 587.836 469.764C587.78 469.771 587.702 469.783 587.605 469.8C587.412 469.835 587.143 469.895 586.819 469.994C586.171 470.193 585.3 470.552 584.381 471.199C582.523 472.506 580.544 474.934 579.761 479.37C578.961 483.903 580.706 487.25 582.624 489.433C583.58 490.52 584.581 491.324 585.344 491.857C585.726 492.124 586.05 492.324 586.281 492.459C586.397 492.527 586.489 492.578 586.555 492.613C586.577 492.625 586.597 492.636 586.612 492.644L586.632 492.654L586.654 492.665L586.661 492.669L586.663 492.67L586.664 492.67C586.664 492.671 586.665 492.671 587 492L586.665 492.671L586.87 492.773L587.097 492.744L587.097 492.744L587.098 492.744L587.103 492.743L587.122 492.741L587.198 492.731C587.265 492.723 587.364 492.711 587.491 492.696C587.744 492.666 588.106 492.626 588.542 492.582C589.414 492.496 590.574 492.4 591.733 492.358C592.901 492.316 594.029 492.331 594.855 492.454C595.274 492.517 595.557 492.6 595.719 492.682C595.734 492.69 595.748 492.697 595.759 492.703C597.443 517.84 603.485 589.359 608.377 647.269L608.378 647.282C611.313 682.025 613.834 711.869 614.752 723.857C616.297 744.036 619.798 779.21 622.912 809.33C624.469 824.392 625.93 838.194 627.001 848.229C627.537 853.247 627.975 857.324 628.279 860.146C628.432 861.557 628.55 862.655 628.631 863.399L628.723 864.247L628.746 864.463L628.752 864.518L628.754 864.532L628.754 864.535C628.754 864.536 628.754 864.536 629.5 864.455L628.754 864.536L628.827 865.205H629.5H683.5H684.292L684.249 864.414L663.79 493.242L671.051 492.748L671.186 492.739L671.31 492.683L671 492C671.31 492.683 671.31 492.683 671.31 492.683L671.31 492.683L671.311 492.682L671.314 492.681L671.322 492.677L671.356 492.662C671.384 492.649 671.426 492.63 671.479 492.605C671.585 492.555 671.738 492.483 671.925 492.392C672.298 492.211 672.81 491.955 673.365 491.657C674.443 491.077 675.79 490.28 676.533 489.527C677.43 488.62 678.245 487.62 678.83 486.326C679.415 485.03 679.75 483.482 679.75 481.5C679.75 476.118 676.488 473.156 673.335 471.579C671.764 470.794 670.202 470.339 669.038 470.08C668.454 469.951 667.966 469.869 667.622 469.82C667.449 469.795 667.313 469.779 667.218 469.768C667.17 469.763 667.133 469.759 667.107 469.757L667.076 469.754L667.067 469.753L667.064 469.753L667.063 469.753C667.063 469.753 667.062 469.753 667 470.5L667.062 469.753L666.995 469.747L666.927 469.754L641.488 472.248L618.549 470.752L618.524 470.75H618.5H595.55L588.099 469.757ZM587.873 471.276C587.923 471.267 587.964 471.261 587.995 471.256L595.401 472.243L595.45 472.25H595.5H618.476L641.451 473.748L641.512 473.752L641.573 473.746L667.001 471.254L667.052 471.259C667.133 471.268 667.254 471.283 667.41 471.305C667.721 471.35 668.171 471.424 668.712 471.545C669.798 471.786 671.236 472.206 672.665 472.921C675.512 474.344 678.25 476.882 678.25 481.5C678.25 483.307 677.946 484.638 677.463 485.708C676.978 486.781 676.293 487.636 675.467 488.473C674.902 489.044 673.749 489.747 672.654 490.336C672.122 490.622 671.63 490.868 671.27 491.043C671.09 491.13 670.944 491.199 670.843 491.246L670.811 491.261L662.949 491.796L662.21 491.846L662.251 492.586L682.708 863.705H630.173L630.122 863.238C630.042 862.493 629.923 861.396 629.771 859.985C629.466 857.164 629.028 853.088 628.492 848.07C627.421 838.035 625.961 824.236 624.404 809.176C621.29 779.052 617.791 743.898 616.248 723.743C615.328 711.73 612.805 681.862 609.868 647.103L609.867 647.083L609.867 647.082C604.968 589.104 598.921 517.526 597.248 492.494C597.208 491.885 596.763 491.529 596.397 491.344C596.023 491.154 595.553 491.042 595.077 490.971C594.11 490.826 592.87 490.816 591.679 490.859C590.477 490.902 589.284 491.002 588.394 491.09C587.948 491.134 587.577 491.175 587.316 491.206C587.253 491.213 587.196 491.22 587.146 491.226C587.113 491.208 587.077 491.187 587.037 491.164C586.837 491.047 586.548 490.868 586.203 490.627C585.512 490.145 584.608 489.418 583.751 488.442C582.044 486.5 580.539 483.597 581.239 479.63C581.956 475.566 583.727 473.494 585.244 472.426C586.012 471.885 586.735 471.589 587.259 471.428C587.521 471.348 587.732 471.302 587.873 471.276ZM595.807 492.736C595.807 492.736 595.804 492.735 595.801 492.731C595.805 492.734 595.807 492.736 595.807 492.736Z" fill="white"/>
<path d="M544.733 492.204L545.466 492.363L545.625 491.631L544.893 491.471L544.733 492.204ZM463.733 863.614L464.466 863.774L463.733 863.614ZM543.267 491.884L543.427 491.151L542.694 490.991L542.534 491.724L543.267 491.884ZM462.396 862.704V863.454H463L463.129 862.864L462.396 862.704ZM411.873 862.704L411.132 862.591L411 863.454H411.873V862.704ZM411.893 862.574L411.152 862.46L411.152 862.461L411.893 862.574ZM412.331 859.721L411.59 859.607L412.331 859.721ZM413.955 849.204L414.696 849.319L413.955 849.204ZM419.435 814.295L420.176 814.413L419.435 814.295ZM433.238 731.945L432.5 731.809L433.238 731.945ZM454.797 595.492L455.538 595.604L454.797 595.492ZM465.606 523.413L464.864 523.302L465.606 523.413ZM468.986 500.646L468.244 500.536V500.536L468.986 500.646ZM469.916 494.361L470.658 494.471L470.658 494.471L469.916 494.361ZM470.159 492.716L470.901 492.825L470.901 492.825L470.159 492.716ZM470.221 492.295L470.963 492.405L470.963 492.405L470.221 492.295ZM470.237 492.189L470.979 492.298L470.979 492.298L470.237 492.189ZM470.241 492.162L469.499 492.052L469.499 492.053L470.241 492.162ZM470.242 492.155L470.984 492.265L470.984 492.263L470.242 492.155ZM468.758 491.937L469.5 492.046L469.5 492.045L468.758 491.937ZM468.757 491.943L468.015 491.834L468.015 491.834L468.757 491.943ZM468.753 491.97L468.011 491.86V491.86L468.753 491.97ZM468.737 492.076L469.479 492.186L469.479 492.186L468.737 492.076ZM468.675 492.497L469.417 492.606L469.417 492.606L468.675 492.497ZM468.432 494.142L469.174 494.252L469.174 494.252L468.432 494.142ZM467.502 500.427L466.761 500.317V500.317L467.502 500.427ZM464.123 523.192L464.864 523.302L464.123 523.192ZM453.314 595.268L452.572 595.156L453.314 595.268ZM431.762 731.672L432.5 731.809L431.762 731.672ZM417.954 814.06L418.695 814.178L417.954 814.06ZM412.473 848.974L413.214 849.089L412.473 848.974ZM410.848 859.493L411.59 859.607L410.848 859.493ZM410.411 862.347L409.669 862.233L409.669 862.234L410.411 862.347ZM410.297 863.088L409.556 862.975L409.556 862.975L410.297 863.088ZM410.268 863.277L409.527 863.164L409.527 863.164L410.268 863.277ZM410.261 863.325L409.52 863.212L409.52 863.212L410.261 863.325ZM410.259 863.337L411.001 863.451L411.001 863.45L410.259 863.337ZM410.259 863.34L409.517 863.226L409.517 863.227L410.259 863.34ZM410.259 863.341L410.372 862.6L409.63 862.486L409.517 863.228L410.259 863.341ZM410.127 864.204L409.385 864.091L409.254 864.954H410.127V864.204ZM463.604 864.204V864.954H464.208L464.337 864.364L463.604 864.204ZM608.377 646.768L609.124 646.705L609.124 646.704L608.377 646.768ZM608.376 646.759L607.629 646.822L607.629 646.823L608.376 646.759ZM614.752 723.356L614.004 723.414L614.752 723.356ZM622.912 808.829L622.166 808.907L622.912 808.829ZM627.001 847.729L627.747 847.649L627.001 847.729ZM628.279 859.646L629.025 859.565H629.025L628.279 859.646ZM628.631 862.899L627.885 862.98L627.885 862.98L628.631 862.899ZM628.723 863.747L627.977 863.827V863.828L628.723 863.747ZM628.746 863.963L628.001 864.044L628.001 864.044L628.746 863.963ZM628.752 864.017L629.498 863.936V863.936L628.752 864.017ZM628.754 864.031L629.5 863.952L629.499 863.95L628.754 864.031ZM628.754 864.035L628.008 864.114L628.01 864.124L628.754 864.035ZM628.754 864.036L628.673 863.29L627.928 863.371L628.009 864.117L628.754 864.036ZM628.827 864.705L628.082 864.786L628.154 865.455H628.827V864.705ZM684.292 864.705V865.455H685.085L685.041 864.663L684.292 864.705ZM684.249 863.913L684.998 863.872V863.872L684.249 863.913ZM663.749 492.002L664.498 491.961L664.456 491.212L663.708 491.254L663.749 492.002ZM662.251 492.085L662.21 491.336L661.461 491.377L661.502 492.126L662.251 492.085ZM682.708 863.205V863.955H683.5L683.456 863.163L682.708 863.205ZM630.173 863.205L629.427 863.286L629.5 863.955H630.173V863.205ZM630.122 862.737L629.377 862.818V862.818L630.122 862.737ZM629.771 859.485L629.025 859.565L629.771 859.485ZM628.492 847.57L629.238 847.49L628.492 847.57ZM624.404 808.675L623.658 808.752L624.404 808.675ZM616.248 723.242L616.996 723.185L616.248 723.242ZM609.867 646.582H609.117V646.614L609.119 646.646L609.867 646.582ZM609.867 646.582H610.617V646.551L610.614 646.519L609.867 646.582ZM597.248 491.994L597.997 491.944L597.947 491.195L597.198 491.245L597.248 491.994ZM595.752 492.094L595.702 491.345L594.953 491.395L595.003 492.144L595.752 492.094ZM544 492.044L463 863.454L464.466 863.774L545.466 492.363L544 492.044ZM543.107 492.617L544.573 492.936L544.893 491.471L543.427 491.151L543.107 492.617ZM463.129 862.864L544 492.044L542.534 491.724L461.663 862.544L463.129 862.864ZM411.873 863.454H462.396V861.954H411.873V863.454ZM411.152 862.461L411.132 862.591L412.615 862.818L412.635 862.687L411.152 862.461ZM411.59 859.607C411.399 860.847 411.252 861.809 411.152 862.46L412.635 862.687C412.734 862.036 412.882 861.074 413.072 859.835L411.59 859.607ZM413.214 849.089C412.524 853.537 411.971 857.128 411.59 859.607L413.072 859.835C413.453 857.356 414.006 853.766 414.696 849.319L413.214 849.089ZM418.695 814.178C416.516 827.876 414.593 840.195 413.214 849.089L414.696 849.319C416.075 840.426 417.998 828.109 420.176 814.413L418.695 814.178ZM432.5 731.809C428.426 753.87 423.051 786.782 418.695 814.178L420.176 814.413C424.533 787.017 429.905 754.122 433.975 732.081L432.5 731.809ZM454.055 595.38C445.824 649.806 436.574 709.747 432.5 731.809L433.975 732.081C438.054 709.989 447.309 650.018 455.538 595.604L454.055 595.38ZM464.864 523.302C462.032 542.333 458.171 568.167 454.055 595.38L455.538 595.604C459.654 568.39 463.516 542.555 466.348 523.523L464.864 523.302ZM468.244 500.536C467.439 505.972 466.281 513.787 464.864 523.302L466.348 523.523C467.764 514.007 468.923 506.192 469.728 500.756L468.244 500.536ZM469.174 494.252C468.961 495.695 468.647 497.818 468.244 500.536L469.728 500.756C470.131 498.038 470.445 495.915 470.658 494.471L469.174 494.252ZM469.417 492.606L469.174 494.252L470.658 494.471L470.901 492.825L469.417 492.606ZM469.479 492.186L469.417 492.606L470.901 492.825L470.963 492.405L469.479 492.186ZM469.495 492.079L469.479 492.186L470.963 492.405L470.979 492.298L469.495 492.079ZM469.499 492.053L469.495 492.079L470.979 492.298L470.983 492.271L469.499 492.053ZM469.5 492.046L469.499 492.052L470.983 492.272L470.984 492.265L469.5 492.046ZM469.391 492.786C469.762 492.84 469.946 492.868 470.037 492.882C470.059 492.885 470.075 492.887 470.087 492.889C470.092 492.89 470.096 492.891 470.099 492.891C470.102 492.892 470.103 492.892 470.103 492.892C470.103 492.892 470.102 492.892 470.1 492.891C470.099 492.891 470.096 492.891 470.093 492.89C470.09 492.889 470.072 492.886 470.048 492.88C470.037 492.877 470.013 492.87 469.983 492.859C469.96 492.851 469.894 492.826 469.821 492.776C469.741 492.722 469.6 492.603 469.53 492.391C469.466 492.198 469.503 492.026 469.499 492.047L470.984 492.263C470.984 492.263 470.984 492.263 470.984 492.262C470.984 492.261 470.984 492.259 470.985 492.258C470.985 492.254 470.986 492.248 470.987 492.241C470.988 492.226 470.991 492.202 470.991 492.172C470.993 492.109 470.987 492.02 470.954 491.92C470.884 491.708 470.742 491.588 470.663 491.534C470.588 491.484 470.522 491.459 470.499 491.451C470.469 491.44 470.444 491.433 470.432 491.43C470.394 491.419 470.358 491.414 470.358 491.414C470.337 491.41 470.306 491.405 470.262 491.398C470.167 491.384 469.98 491.356 469.609 491.302L469.391 492.786ZM469.5 492.045C469.503 492.023 469.489 492.2 469.372 492.367C469.243 492.551 469.072 492.624 468.981 492.652C468.896 492.679 468.826 492.684 468.801 492.685C468.77 492.687 468.745 492.686 468.733 492.686C468.709 492.685 468.691 492.683 468.688 492.683C468.684 492.682 468.682 492.682 468.68 492.682C468.679 492.682 468.678 492.682 468.678 492.682C468.678 492.682 468.679 492.682 468.682 492.682C468.684 492.683 468.689 492.683 468.694 492.684C468.706 492.685 468.722 492.688 468.744 492.691C468.835 492.704 469.019 492.731 469.391 492.786L469.609 491.302C469.239 491.247 469.052 491.22 468.957 491.206C468.912 491.2 468.881 491.195 468.861 491.193C468.86 491.193 468.825 491.188 468.785 491.187C468.773 491.186 468.747 491.186 468.715 491.187C468.691 491.189 468.62 491.194 468.535 491.22C468.443 491.249 468.273 491.322 468.144 491.506C468.083 491.593 468.051 491.676 468.035 491.738C468.027 491.767 468.022 491.791 468.019 491.805C468.018 491.813 468.017 491.819 468.016 491.822C468.016 491.824 468.016 491.826 468.016 491.827C468.016 491.827 468.016 491.828 468.016 491.828L469.5 492.045ZM469.499 492.053L469.5 492.046L468.016 491.827L468.015 491.834L469.499 492.053ZM469.495 492.079L469.499 492.053L468.015 491.834L468.011 491.86L469.495 492.079ZM469.479 492.186L469.495 492.079L468.011 491.86L467.995 491.967L469.479 492.186ZM469.417 492.606L469.479 492.186L467.995 491.967L467.933 492.387L469.417 492.606ZM469.174 494.252L469.417 492.606L467.933 492.387L467.69 494.032L469.174 494.252ZM468.244 500.536C468.647 497.818 468.961 495.695 469.174 494.252L467.69 494.032C467.477 495.476 467.163 497.599 466.761 500.317L468.244 500.536ZM464.864 523.302C466.281 513.787 467.439 505.972 468.244 500.536L466.761 500.317C465.956 505.752 464.797 513.566 463.381 523.081L464.864 523.302ZM454.055 595.38C458.171 568.167 462.032 542.333 464.864 523.302L463.381 523.081C460.549 542.111 456.688 567.944 452.572 595.156L454.055 595.38ZM432.5 731.809C436.574 709.747 445.824 649.806 454.055 595.38L452.572 595.156C444.339 649.594 435.093 709.505 431.025 731.536L432.5 731.809ZM418.695 814.178C423.051 786.782 428.426 753.87 432.5 731.809L431.025 731.536C426.947 753.618 421.57 786.546 417.213 813.942L418.695 814.178ZM413.214 849.089C414.593 840.195 416.516 827.876 418.695 814.178L417.213 813.942C415.035 827.642 413.111 839.964 411.731 848.859L413.214 849.089ZM411.59 859.607C411.971 857.128 412.524 853.537 413.214 849.089L411.731 848.859C411.042 853.308 410.488 856.899 410.107 859.379L411.59 859.607ZM411.152 862.46C411.252 861.809 411.399 860.847 411.59 859.607L410.107 859.379C409.917 860.619 409.769 861.581 409.669 862.233L411.152 862.46ZM411.039 863.202L411.152 862.46L409.669 862.234L409.556 862.975L411.039 863.202ZM411.01 863.391L411.039 863.202L409.556 862.975L409.527 863.164L411.01 863.391ZM411.002 863.438L411.01 863.39L409.527 863.164L409.52 863.212L411.002 863.438ZM411.001 863.45L411.002 863.438L409.52 863.212L409.518 863.224L411.001 863.45ZM411 863.454L411.001 863.451L409.518 863.223L409.517 863.226L411 863.454ZM411.113 862.713C410.742 862.656 410.558 862.628 410.466 862.614C410.419 862.606 410.399 862.603 410.392 862.602C410.384 862.601 410.395 862.603 410.411 862.606C410.416 862.607 410.427 862.609 410.441 862.613C410.451 862.615 410.485 862.624 410.528 862.64C410.549 862.648 410.589 862.665 410.636 862.692C410.68 862.717 410.762 862.771 410.839 862.865C410.928 862.974 410.987 863.108 411.004 863.254C411.011 863.317 411.009 863.37 411.006 863.403C411.005 863.419 411.003 863.433 411.002 863.441C411.002 863.444 411.001 863.449 411.001 863.45C411 863.452 411 863.453 411 863.453L409.517 863.227C409.517 863.227 409.517 863.228 409.517 863.23C409.517 863.231 409.516 863.236 409.516 863.239C409.514 863.247 409.513 863.261 409.511 863.277C409.509 863.31 409.506 863.363 409.514 863.426C409.531 863.572 409.589 863.706 409.678 863.815C409.814 863.98 409.981 864.037 409.99 864.04C410.033 864.057 410.067 864.065 410.077 864.068C410.092 864.071 410.103 864.074 410.109 864.075C410.128 864.079 410.145 864.082 410.149 864.082C410.164 864.085 410.191 864.089 410.237 864.096C410.33 864.111 410.516 864.139 410.887 864.196L411.113 862.713ZM410.145 864.082L410.887 864.196L411.113 862.713L410.372 862.6L410.145 864.082ZM410.868 864.317L411 863.454L409.517 863.228L409.385 864.091L410.868 864.317ZM411 863.454H410.127V864.954H411V863.454ZM463 863.454H411V864.954H463V863.454ZM463.604 863.454H463V864.954H463.604V863.454ZM463 863.454L462.871 864.044L464.337 864.364L464.466 863.774L463 863.454ZM609.124 646.704L609.123 646.695L607.629 646.823L607.63 646.833L609.124 646.704ZM615.5 723.299C614.582 711.306 612.06 681.452 609.124 646.705L607.63 646.832C610.565 681.583 613.087 711.428 614.004 723.414L615.5 723.299ZM623.658 808.752C620.544 778.63 617.044 743.466 615.5 723.299L614.004 723.414C615.55 743.604 619.052 778.788 622.166 808.907L623.658 808.752ZM627.747 847.649C626.675 837.614 625.215 823.813 623.658 808.752L622.166 808.907C623.723 823.97 625.184 837.772 626.255 847.809L627.747 847.649ZM629.025 859.565C628.721 856.743 628.282 852.667 627.747 847.649L626.255 847.809C626.791 852.827 627.229 856.904 627.534 859.726L629.025 859.565ZM629.377 862.818C629.296 862.074 629.177 860.976 629.025 859.565L627.534 859.726C627.686 861.137 627.805 862.235 627.885 862.98L629.377 862.818ZM629.469 863.666L629.377 862.818L627.885 862.98L627.977 863.827L629.469 863.666ZM629.492 863.882L629.469 863.666L627.977 863.828L628.001 864.044L629.492 863.882ZM629.498 863.936L629.492 863.882L628.001 864.044L628.007 864.099L629.498 863.936ZM629.499 863.95L629.498 863.936L628.007 864.099L628.008 864.112L629.499 863.95ZM629.5 863.955L629.5 863.952L628.008 864.11L628.008 864.114L629.5 863.955ZM629.419 863.209C629.046 863.25 628.86 863.27 628.768 863.28C628.721 863.285 628.701 863.287 628.694 863.287C628.686 863.288 628.699 863.287 628.718 863.286C628.724 863.285 628.736 863.285 628.753 863.285C628.764 863.285 628.804 863.285 628.854 863.291C628.88 863.295 628.926 863.302 628.982 863.32C629.037 863.338 629.131 863.374 629.226 863.452C629.335 863.54 629.412 863.652 629.457 863.774C629.493 863.871 629.501 863.959 629.499 863.945L628.01 864.124C628.008 864.11 628.015 864.199 628.051 864.296C628.096 864.417 628.174 864.53 628.282 864.617C628.455 864.757 628.637 864.776 628.655 864.778C628.706 864.785 628.745 864.785 628.757 864.785C628.774 864.785 628.787 864.784 628.794 864.784C628.815 864.783 628.835 864.781 628.838 864.78C628.854 864.779 628.881 864.776 628.927 864.771C629.021 864.761 629.209 864.741 629.581 864.7L629.419 863.209ZM628.836 864.781L629.581 864.7L629.419 863.209L628.673 863.29L628.836 864.781ZM629.573 864.624L629.5 863.955L628.009 864.117L628.082 864.786L629.573 864.624ZM629.5 863.955H628.827V865.455H629.5V863.955ZM683.5 863.955H629.5V865.455H683.5V863.955ZM684.292 863.955H683.5V865.455H684.292V863.955ZM683.5 863.955L683.544 864.746L685.041 864.663L684.998 863.872L683.5 863.955ZM663 492.044L683.5 863.955L684.998 863.872L664.498 491.961L663 492.044ZM662.292 492.834L663.79 492.751L663.708 491.254L662.21 491.336L662.292 492.834ZM683.456 863.163L663 492.044L661.502 492.126L681.959 863.246L683.456 863.163ZM630.173 863.955H682.708V862.455H630.173V863.955ZM629.377 862.818L629.427 863.286L630.919 863.124L630.868 862.656L629.377 862.818ZM629.025 859.565C629.177 860.976 629.296 862.074 629.377 862.818L630.868 862.657C630.787 861.912 630.669 860.815 630.516 859.404L629.025 859.565ZM627.747 847.649C628.282 852.667 628.721 856.743 629.025 859.565L630.516 859.404C630.212 856.583 629.774 852.507 629.238 847.49L627.747 847.649ZM623.658 808.752C625.215 823.813 626.675 837.614 627.747 847.649L629.238 847.49C628.167 837.456 626.707 823.657 625.15 808.598L623.658 808.752ZM615.5 723.299C617.044 743.466 620.544 778.63 623.658 808.752L625.15 808.598C622.036 778.473 618.538 743.329 616.996 723.185L615.5 723.299ZM609.119 646.646C612.057 681.415 614.58 711.288 615.5 723.299L616.996 723.185C616.075 711.166 613.551 681.285 610.614 646.519L609.119 646.646ZM609.117 646.582V646.582H610.617V646.582H609.117ZM596.5 492.044C598.174 517.084 604.222 588.673 609.119 646.645L610.614 646.519C605.715 588.536 599.669 516.967 597.997 491.944L596.5 492.044ZM595.802 492.842L597.298 492.742L597.198 491.245L595.702 491.345L595.802 492.842ZM609.124 646.696C604.224 588.698 598.173 517.072 596.5 492.044L595.003 492.144C596.677 517.189 602.73 588.834 607.629 646.822L609.124 646.696Z" fill="#263E4B"/>
<path fill-rule="evenodd" clip-rule="evenodd" d="M516 160.677L459.627 160.942C431.502 161.075 408.378 183.152 406.945 211.24L406 229.754C406 229.754 407.321 215.474 409.5 209.732C411.806 203.655 414.469 200.16 417.5 196.217C422.082 190.255 427.272 185.225 431.5 184.203C446 180.7 464 206.728 464 206.728C464 206.728 467.015 200.897 469 197.718C471.642 193.487 474.455 188.918 479.5 184.203C494.5 170.188 516 160.677 516 160.677Z" fill="#FF5364"/>
<path fill-rule="evenodd" clip-rule="evenodd" d="M470 470.52C470 470.52 477.715 473.335 499 473.023C506.727 472.91 520.636 470.603 532.5 470.019C542.424 469.531 562.5 470.019 562.5 470.019L574 439.486H585L588.5 470.019C588.5 470.019 606.052 471.117 613.5 471.521C624.179 472.1 633.062 472.522 640 472.522C657.667 472.522 666 470.019 666 470.019L640.5 327.362L522 331.867C522 331.867 519.677 364.452 505 403.446C502.915 408.986 502.581 415.989 500.5 422.967C497.328 433.601 493.835 443.885 490 450.998C484.543 461.12 470 470.52 470 470.52Z" fill="#FF5364"/>
<path fill-rule="evenodd" clip-rule="evenodd" d="M584.32 440.236H574.519L563.528 469.419C566.594 470.129 568.766 472.994 568.517 476.231C568.496 476.51 568.456 476.788 568.399 477.062L567.484 481.436C566.101 488.054 560.271 492.795 553.517 492.795H462.048C457.833 492.794 454.416 489.374 454.416 485.154C454.416 484.356 454.541 483.562 454.787 482.803C455.454 480.739 456.286 478.073 457.283 474.805C457.404 474.409 457.823 474.186 458.219 474.307C458.615 474.428 458.838 474.848 458.717 475.244C457.718 478.519 456.884 481.192 456.214 483.265C456.016 483.875 455.916 484.513 455.916 485.154C455.916 488.545 458.661 491.293 462.048 491.293H553.517C559.561 491.293 564.778 487.051 566.016 481.128L566.931 476.754C566.975 476.543 567.005 476.33 567.021 476.116C567.232 473.38 565.192 470.991 562.463 470.77C556.259 470.648 551.869 470.586 549.298 470.583C542.337 470.575 522.707 471.715 518.6 472.265C509.277 473.514 504.34 473.694 496.276 473.422L495.751 473.404C492.87 473.307 491.492 473.273 489.654 473.273C482.984 473.273 478.002 473.105 474.695 472.769C470.815 472.373 469.058 471.82 469.257 470.414L470.743 470.626C470.758 470.517 470.728 470.435 470.708 470.399C470.813 470.48 471.029 470.58 471.347 470.68C472.083 470.911 473.256 471.112 474.847 471.275C478.092 471.605 483.031 471.771 489.654 471.771C491.514 471.771 492.905 471.805 495.802 471.904L496.326 471.921C504.312 472.191 509.168 472.014 518.401 470.777C522.579 470.217 542.275 469.073 549.3 469.081C551.812 469.084 556.039 469.143 561.985 469.258L573.298 439.221C573.409 438.928 573.688 438.735 574 438.735H585H591.5C591.914 438.735 592.25 439.071 592.25 439.486C592.25 439.9 591.914 440.236 591.5 440.236H585.828L588.697 469.445C592.009 469.992 598.626 470.27 608.5 470.27C612.212 470.27 630.352 471.284 635.57 471.775C641.516 472.334 651.405 471.861 665.21 470.352L653.761 403.573C653.691 403.164 653.965 402.776 654.373 402.706C654.782 402.636 655.169 402.91 655.239 403.319L666.632 469.769H668.25C674.601 469.769 679.75 474.923 679.75 481.282C679.75 487.64 674.601 492.795 668.25 492.795H589.354C583.724 492.795 579.16 488.225 579.16 482.588C579.16 482.117 579.192 481.645 579.257 481.178L579.856 476.88C580.396 473.012 583.39 469.986 587.182 469.362L584.32 440.236ZM581.342 477.087C581.81 473.728 584.508 471.134 587.861 470.786L587.855 470.819C591.079 471.457 597.942 471.771 608.5 471.771C612.16 471.771 630.255 472.783 635.43 473.27C641.605 473.851 651.813 473.348 666.083 471.767L666.028 471.271H668.25C673.773 471.271 678.25 475.753 678.25 481.282C678.25 486.811 673.773 491.293 668.25 491.293H589.354C584.552 491.293 580.66 487.396 580.66 482.588C580.66 482.186 580.687 481.784 580.743 481.386L581.342 477.087Z" fill="#263E4B"/>
<path fill-rule="evenodd" clip-rule="evenodd" d="M615.804 49.3683C615.778 49.3391 615.743 49.3032 615.701 49.2615C615.584 49.1444 615.421 48.9914 615.214 48.8039H543.707C543.293 48.8039 542.957 48.4677 542.957 48.0531C542.957 47.6384 543.293 47.3022 543.707 47.3022H615.5C615.683 47.3022 615.86 47.3694 615.997 47.4909C616.882 48.2757 617.146 48.5393 617.228 48.8748C618.487 53.9958 618.758 57.3271 618.75 63.0705C618.75 63.3622 618.75 63.4905 618.75 63.6483V75.1289C618.75 92.1748 618.13 100.159 615.534 107.211C612.191 116.289 605.644 120.884 594.694 120.884H578.713L575.802 151.648C599.503 159.712 614.657 166.715 621.324 172.718C629.968 180.502 652.127 225.488 663.483 255.012C666.912 263.929 672.228 269.577 685.128 280.03L686.213 280.909C699.168 291.407 704.463 297.075 707.705 306.084C712.711 319.993 722.727 323.335 738.185 316.169C738.56 315.995 739.006 316.158 739.18 316.535C739.354 316.911 739.191 317.357 738.815 317.531C722.601 325.048 711.617 321.383 706.294 306.593C703.176 297.929 698.015 292.405 685.27 282.076L684.185 281.197C671.085 270.582 665.638 264.796 662.083 255.552C650.826 226.287 628.713 181.391 620.32 173.834C613.802 167.965 598.594 160.96 574.759 152.879C574.43 152.768 574.22 152.444 574.253 152.097L577.206 120.884H568.5C568.086 120.884 567.75 120.547 567.75 120.133C567.75 119.718 568.086 119.382 568.5 119.382H578.021C578.027 119.382 578.032 119.382 578.038 119.382H594.694C605.014 119.382 611.001 115.181 614.126 106.692C616.638 99.8699 617.25 91.9848 617.25 75.1289V63.6483C617.25 63.4896 617.25 63.3606 617.25 63.0685C617.258 57.4872 617 54.2715 615.804 49.3683ZM797.78 390.219C785.332 432.544 772.139 457.166 758.361 464.041C736.281 475.059 709.276 475.907 687.33 465.131C684.597 463.789 682.452 461.915 680.229 458.975C678.599 456.819 676.968 454.188 674.353 449.6C673.879 448.769 672.489 446.308 671.537 444.623C671.102 443.852 670.758 443.243 670.636 443.027C668.975 440.097 667.54 437.602 666.009 435.001C663.995 431.579 661.054 423.804 657.214 411.727L655.785 412.183C659.659 424.368 662.626 432.211 664.716 435.763C666.243 438.356 667.675 440.845 669.331 443.768C669.389 443.871 669.498 444.063 669.643 444.319L670.23 445.358C671.182 447.044 672.575 449.51 673.05 450.344C675.696 454.985 677.353 457.659 679.033 459.881C681.39 462.998 683.712 465.027 686.669 466.479C709.05 477.468 736.545 476.605 759.03 465.385C773.314 458.257 786.656 433.358 799.219 390.643L797.78 390.219Z" fill="#263E4B"/>
<path fill-rule="evenodd" clip-rule="evenodd" d="M517 196.217C517 164.682 515.5 160.677 515.5 160.677L524 157.174C524 157.174 527 179.365 527 192.212V218.241L514 236.762C514 236.762 517 227.752 517 196.217ZM604 211.734C600.951 200.833 592 158.675 592 158.675L601 162.179C601 162.179 610.5 191.211 615.5 211.734C620.5 232.257 622 272.801 622 272.801L609.5 269.297C609.5 269.297 611 236.762 604 211.734Z" fill="#FF5364"/>
<path fill-rule="evenodd" clip-rule="evenodd" d="M515.298 160.941L515.043 160.26L525.113 156.109L525.243 157.073C527.248 171.898 528.25 183.608 528.25 192.212V218.479L512.169 241.389L513.789 236.524C515.754 230.622 516.75 217.156 516.75 196.217C516.75 175.359 516.249 163.48 515.298 160.941ZM591.478 157.472L591.767 158.832C597.738 186.954 601.739 204.648 603.778 211.937C608.422 228.54 610.247 247.648 609.251 269.263L609.223 269.86L623.288 273.802L623.25 272.774C622.248 245.698 620.076 225.297 616.729 211.556C613.39 197.854 608.552 181.317 602.213 161.946L602.103 161.608L591.478 157.472ZM610.776 268.735C611.719 247.213 609.869 228.145 605.222 211.532C603.229 204.403 599.327 187.178 593.523 159.879L600.898 162.75C607.171 181.943 611.963 198.33 615.272 211.912C618.548 225.361 620.697 245.329 621.712 271.801L610.776 268.735ZM516.199 233.036C517.571 225.831 518.25 213.575 518.25 196.217C518.25 176.476 517.817 164.873 516.91 161.115L523.886 158.239C525.796 172.546 526.75 183.873 526.75 192.212V218.004L516.199 233.036Z" fill="#263E4B"/>
<path fill-rule="evenodd" clip-rule="evenodd" d="M645.781 390.645L577.781 160.891L579.219 160.464L647.237 390.29C651.124 410.604 665.133 420.715 689.5 420.715C713.878 420.715 733.92 404.424 749.65 371.7L751.001 372.351C735.045 405.547 714.537 422.217 689.5 422.217C664.451 422.217 649.794 411.638 645.781 390.645ZM572.5 420.715C592.985 420.715 607.143 396.157 614.759 346.769L616.241 346.998C608.523 397.053 594.015 422.217 572.5 422.217C555.093 422.217 543.511 368.001 538.751 264.327C537.853 244.778 537.353 211.399 537.25 164.183L538.75 164.18C538.853 211.375 539.353 244.737 540.249 264.258C544.948 366.582 556.512 420.715 572.5 420.715Z" fill="#263E4B"/>
<path fill-rule="evenodd" clip-rule="evenodd" d="M640.885 269.292L635.962 222.447C635.962 222.447 638.925 214.849 651.576 213.519C664.227 212.189 668.706 219.005 668.706 219.005L673.629 265.851L640.885 269.292ZM778.411 254.838L773.487 207.992C773.487 207.992 769.009 201.176 756.358 202.506C743.706 203.836 740.743 211.434 740.743 211.434L745.667 258.279L778.411 254.838ZM741.869 316.64L689.478 322.147L692.577 351.63L744.968 346.124L741.869 316.64Z" fill="#263E4B"/>
<path fill-rule="evenodd" clip-rule="evenodd" d="M629.162 248.911L636.771 321.309L689.162 315.802L681.553 243.405C681.553 243.405 674.428 232.892 654.187 235.02C633.945 237.147 629.162 248.911 629.162 248.911ZM786.334 232.392L793.943 304.789L741.553 310.296L733.943 237.898C733.943 237.898 738.726 226.134 758.968 224.007C779.21 221.879 786.334 232.392 786.334 232.392Z" fill="white"/>
<path fill-rule="evenodd" clip-rule="evenodd" d="M628.833 249.113L636.442 321.511L688.833 316.005L681.223 243.607C681.223 243.607 674.099 233.094 653.857 235.222C633.616 237.349 628.833 249.113 628.833 249.113ZM786.005 232.594L793.614 304.992L741.223 310.498L733.614 238.1C733.614 238.1 738.397 226.336 758.639 224.209C778.881 222.081 786.005 232.594 786.005 232.594Z" fill="white"/>
<path d="M636.442 321.511L635.696 321.589C635.717 321.787 635.816 321.969 635.97 322.094C636.125 322.219 636.323 322.278 636.52 322.257L636.442 321.511ZM628.833 249.113L628.138 248.831C628.092 248.945 628.074 249.069 628.087 249.192L628.833 249.113ZM688.833 316.005L688.911 316.75C689.323 316.707 689.622 316.338 689.579 315.926L688.833 316.005ZM681.223 243.607L681.969 243.528C681.956 243.406 681.913 243.288 681.844 243.186L681.223 243.607ZM793.614 304.992L793.692 305.737C794.104 305.694 794.403 305.325 794.36 304.913L793.614 304.992ZM786.005 232.594L786.751 232.515C786.738 232.393 786.695 232.275 786.626 232.173L786.005 232.594ZM741.223 310.498L740.478 310.576C740.521 310.988 740.89 311.287 741.302 311.244L741.223 310.498ZM733.614 238.1L732.919 237.818C732.873 237.932 732.855 238.056 732.868 238.179L733.614 238.1ZM637.188 321.433L629.579 249.035L628.087 249.192L635.696 321.589L637.188 321.433ZM688.754 315.259L636.364 320.765L636.52 322.257L688.911 316.75L688.754 315.259ZM680.478 243.685L688.087 316.083L689.579 315.926L681.969 243.528L680.478 243.685ZM653.936 235.968C663.911 234.919 670.598 236.988 674.771 239.274C676.861 240.42 678.331 241.625 679.272 242.536C679.743 242.992 680.082 243.374 680.3 243.637C680.409 243.769 680.488 243.871 680.538 243.938C680.563 243.971 680.58 243.996 680.591 244.011C680.597 244.019 680.6 244.024 680.602 244.027C680.603 244.028 680.604 244.029 680.604 244.029C680.604 244.029 680.604 244.029 680.603 244.029C680.603 244.029 680.603 244.028 680.603 244.028C680.603 244.028 680.603 244.027 681.223 243.607C681.844 243.186 681.844 243.186 681.844 243.185C681.843 243.185 681.843 243.184 681.843 243.184C681.842 243.183 681.841 243.182 681.841 243.181C681.839 243.178 681.837 243.175 681.834 243.171C681.829 243.164 681.822 243.154 681.814 243.142C681.796 243.118 681.772 243.083 681.739 243.04C681.675 242.954 681.581 242.833 681.456 242.681C681.205 242.378 680.829 241.955 680.316 241.458C679.289 240.465 677.712 239.175 675.492 237.959C671.041 235.521 664.046 233.397 653.779 234.476L653.936 235.968ZM628.833 249.113C629.528 249.396 629.527 249.396 629.527 249.397C629.527 249.397 629.527 249.397 629.527 249.397C629.527 249.397 629.527 249.397 629.527 249.397C629.527 249.397 629.527 249.396 629.528 249.395C629.529 249.392 629.532 249.386 629.535 249.377C629.543 249.36 629.555 249.333 629.572 249.295C629.607 249.219 629.663 249.103 629.742 248.951C629.901 248.648 630.153 248.204 630.519 247.661C631.25 246.574 632.437 245.089 634.244 243.534C637.85 240.43 643.961 237.016 653.936 235.968L653.779 234.476C643.512 235.555 637.111 239.087 633.265 242.397C631.346 244.049 630.072 245.638 629.274 246.823C628.875 247.416 628.595 247.908 628.413 248.256C628.322 248.43 628.255 248.569 628.21 248.667C628.188 248.715 628.171 248.754 628.159 248.781C628.153 248.795 628.148 248.806 628.145 248.814C628.143 248.819 628.142 248.822 628.14 248.825C628.14 248.826 628.139 248.827 628.139 248.828C628.139 248.829 628.139 248.829 628.138 248.83C628.138 248.83 628.138 248.831 628.833 249.113ZM794.36 304.913L786.751 232.515L785.259 232.672L792.868 305.07L794.36 304.913ZM741.302 311.244L793.692 305.737L793.536 304.246L741.145 309.752L741.302 311.244ZM732.868 238.179L740.478 310.576L741.969 310.42L734.36 238.022L732.868 238.179ZM758.56 223.463C748.293 224.542 741.892 228.074 738.046 231.384C736.127 233.036 734.853 234.625 734.056 235.81C733.657 236.403 733.377 236.895 733.194 237.243C733.103 237.417 733.037 237.556 732.992 237.654C732.969 237.702 732.952 237.741 732.94 237.768C732.934 237.782 732.93 237.793 732.926 237.802C732.924 237.806 732.923 237.809 732.922 237.812C732.921 237.813 732.921 237.814 732.92 237.815C732.92 237.816 732.92 237.816 732.92 237.817C732.92 237.817 732.919 237.818 733.614 238.1C734.309 238.383 734.309 238.383 734.309 238.384C734.309 238.384 734.308 238.384 734.308 238.384C734.308 238.384 734.308 238.385 734.308 238.384C734.308 238.384 734.309 238.383 734.309 238.382C734.311 238.379 734.313 238.373 734.317 238.364C734.324 238.347 734.336 238.32 734.354 238.282C734.389 238.206 734.445 238.09 734.524 237.938C734.682 237.635 734.934 237.191 735.3 236.648C736.031 235.561 737.218 234.076 739.025 232.521C742.631 229.417 748.742 226.003 758.717 224.955L758.56 223.463ZM786.005 232.594C786.626 232.173 786.625 232.173 786.625 232.172C786.625 232.172 786.624 232.171 786.624 232.171C786.624 232.17 786.623 232.169 786.622 232.168C786.62 232.165 786.618 232.162 786.616 232.159C786.611 232.151 786.604 232.141 786.595 232.129C786.578 232.105 786.553 232.07 786.521 232.027C786.456 231.941 786.362 231.82 786.237 231.668C785.986 231.365 785.61 230.942 785.097 230.445C784.07 229.452 782.494 228.162 780.273 226.946C775.823 224.508 768.827 222.384 758.56 223.463L758.717 224.955C768.692 223.906 775.38 225.975 779.552 228.261C781.643 229.407 783.112 230.613 784.054 231.523C784.525 231.979 784.863 232.361 785.081 232.624C785.19 232.756 785.269 232.858 785.319 232.925C785.344 232.959 785.362 232.983 785.372 232.998C785.378 233.006 785.382 233.011 785.383 233.014C785.384 233.015 785.385 233.016 785.385 233.016C785.385 233.016 785.385 233.016 785.385 233.016C785.385 233.016 785.384 233.015 785.384 233.015C785.384 233.015 785.384 233.015 786.005 232.594Z" fill="#263E4B"/>
<path fill-rule="evenodd" clip-rule="evenodd" d="M626.353 317.796L635.156 401.551L707.193 393.979L698.39 310.225C698.39 310.225 688.85 298.2 661.018 301.125C633.185 304.051 626.353 317.796 626.353 317.796ZM803.172 299.212L811.975 382.966L739.938 390.538L731.135 306.783C731.135 306.783 737.966 293.038 765.799 290.112C793.631 287.187 803.172 299.212 803.172 299.212Z" fill="white"/>
<path fill-rule="evenodd" clip-rule="evenodd" d="M634.179 401.653C634.222 402.066 634.592 402.365 635.003 402.322L707.041 394.75C707.453 394.707 707.751 394.338 707.708 393.925L698.905 310.171C698.89 310.029 698.835 309.894 698.746 309.782C692.192 301.521 679.492 298.429 660.708 300.403C641.924 302.377 630.144 308.043 625.451 317.486C625.387 317.614 625.361 317.757 625.376 317.899L634.179 401.653ZM697.436 310.547L706.138 393.335L635.592 400.75L626.891 317.962C631.374 309.192 642.672 303.809 660.865 301.896C679.058 299.984 691.228 302.901 697.436 310.547ZM812.489 382.912C812.533 383.325 812.234 383.694 811.822 383.737L739.785 391.309C739.373 391.352 739.004 391.053 738.96 390.64L730.157 306.886C730.143 306.744 730.168 306.601 730.232 306.473C734.925 297.03 746.705 291.364 765.489 289.39C784.273 287.416 796.973 290.508 803.528 298.769C803.616 298.881 803.671 299.016 803.686 299.158L812.489 382.912ZM802.218 299.534L810.919 382.322L740.374 389.737L731.672 306.949C736.156 298.179 747.453 292.796 765.646 290.883C783.839 288.971 796.009 291.888 802.218 299.534Z" fill="#263E4B"/>
<path fill-rule="evenodd" clip-rule="evenodd" d="M672.235 410.074C692.127 407.983 707.675 400.788 706.962 394.004C706.249 387.219 689.545 383.414 669.652 385.505C649.76 387.595 634.212 394.79 634.925 401.575C635.638 408.36 652.342 412.165 672.235 410.074ZM777.016 399.061C757.124 401.152 740.419 397.347 739.706 390.562C738.993 383.777 754.541 376.582 774.434 374.492C794.326 372.401 811.03 376.206 811.743 382.991C812.457 389.775 796.909 396.97 777.016 399.061Z" fill="#263E4B"/>
<path fill-rule="evenodd" clip-rule="evenodd" d="M627.408 322.875C628.069 329.167 623.506 334.804 617.217 335.465C610.928 336.126 605.293 331.561 604.632 325.268C603.971 318.976 608.533 313.339 614.822 312.678C621.111 312.017 626.746 316.582 627.408 322.875ZM606.124 325.112C606.699 330.579 611.595 334.546 617.06 333.972C622.526 333.397 626.49 328.499 625.916 323.031C625.341 317.564 620.445 313.597 614.979 314.172C609.514 314.746 605.549 319.644 606.124 325.112Z" fill="#263E4B"/>
<path fill-rule="evenodd" clip-rule="evenodd" d="M504.746 164.846C515.862 159.615 524.205 156.137 529.789 154.411C533.53 153.254 536.191 152.828 537.681 153.298L540.251 106.076C540.274 105.662 540.628 105.345 541.041 105.368C541.455 105.39 541.772 105.744 541.749 106.158L539.075 155.282C539.022 156.255 537.576 156.215 537.576 155.241C537.576 154.322 535.261 154.29 530.232 155.845C524.73 157.547 516.442 161.001 505.385 166.205C483.405 176.549 466.617 197.129 455.028 227.99C454.971 228.142 454.866 228.271 454.729 228.359C437.49 239.362 420.721 255.874 404.429 277.896C388.342 299.642 379.248 322.956 377.14 347.854L387.244 344.176C387.633 344.034 388.064 344.235 388.205 344.625C388.347 345.014 388.146 345.445 387.757 345.587L378.773 348.857L387.882 354.246C388.238 354.457 388.357 354.917 388.146 355.274C387.935 355.631 387.475 355.75 387.119 355.539L376.948 349.522L376.757 349.591C376.668 349.623 376.578 349.638 376.489 349.637C358.125 374.117 353.878 398.269 363.694 422.181C373.263 445.493 377.564 453.813 384.814 460.994C393.172 469.273 404.682 473.576 424.583 475.78C462.112 479.938 484.031 467.487 493.793 439.737C499.892 422.398 503.381 410.256 504.256 403.351C504.308 402.94 504.684 402.649 505.095 402.701C505.506 402.753 505.797 403.129 505.744 403.54C504.852 410.582 501.341 422.801 495.208 440.236C485.204 468.673 462.614 481.505 424.418 477.273C404.212 475.034 392.397 470.618 383.759 462.061C376.311 454.684 371.958 446.263 362.307 422.752C352.223 398.189 356.671 373.35 375.596 348.328C377.632 322.921 386.845 299.142 403.223 277.003C419.552 254.931 436.38 238.337 453.712 227.227C465.426 196.155 482.435 175.346 504.746 164.846Z" fill="#263E4B"/>
<path fill-rule="evenodd" clip-rule="evenodd" d="M538.5 149.165L531.475 166.953C530.869 168.489 532.279 170.056 533.87 169.615L563.873 161.291L583.729 168.364C585.582 169.024 587.175 166.893 586.017 165.303L575 150.166C575 150.166 571.935 152.836 561.867 152.836C551.799 152.836 538.5 149.165 538.5 149.165Z" fill="white"/>
<path fill-rule="evenodd" clip-rule="evenodd" d="M583.975 168.57C585.406 169.079 586.978 168.331 587.488 166.899C587.792 166.042 587.654 165.09 587.119 164.355L576.106 149.223C575.847 148.867 575.339 148.81 575.008 149.099C573.142 150.724 568.909 151.584 562.367 151.584C555.729 151.584 548.005 150.371 539.199 147.94C538.83 147.839 538.443 148.032 538.302 148.388L531.279 166.172C530.721 167.586 531.413 169.186 532.826 169.745C533.382 169.965 533.995 169.998 534.571 169.838L563.405 161.838C563.442 162.144 563.486 162.516 563.536 162.954C563.723 164.579 564.005 167.101 564.379 170.52C565.129 177.36 566.254 187.788 567.754 201.803C567.798 202.215 568.168 202.514 568.58 202.469C568.992 202.425 569.29 202.055 569.246 201.643C567.746 187.627 566.621 177.198 565.87 170.356C565.495 166.935 565.214 164.41 565.026 162.781C564.982 162.397 564.943 162.063 564.909 161.778L583.975 168.57ZM564.627 160.084L584.478 167.155C585.128 167.386 585.843 167.046 586.074 166.395C586.213 166.006 586.15 165.573 585.907 165.239L575.343 150.725C573.078 152.235 569.105 152.999 563.387 153.079C563.552 153.723 563.709 154.439 563.859 155.222C564.105 156.497 564.297 157.724 564.523 159.343L564.619 160.029C564.622 160.048 564.624 160.066 564.627 160.084ZM563.15 160.351C563.145 160.316 563.14 160.279 563.134 160.239L563.038 159.552C562.815 157.956 562.626 156.751 562.386 155.506C562.211 154.595 562.028 153.783 561.837 153.083C555.34 153.023 547.879 151.849 539.45 149.566L532.674 166.725C532.42 167.367 532.735 168.094 533.377 168.348C533.63 168.448 533.908 168.463 534.171 168.391L563.15 160.351Z" fill="#263E4B"/>
<path fill-rule="evenodd" clip-rule="evenodd" d="M461 321.003C461 321.003 523.238 221.689 532.5 211.382C543.714 198.901 555.12 222.891 549.153 238.573L539.5 263.94" fill="white"/>
<path d="M461.461 321.754C502.906 255.621 526.754 219.058 532.883 212.236C537.428 207.179 545.207 206.767 550.259 211.316C554.04 214.721 555.339 220.102 553.529 224.859L538.625 264.025L540.027 264.559L554.93 225.393C556.961 220.057 555.504 214.019 551.263 210.2C545.595 205.096 536.867 205.558 531.768 211.232C525.548 218.154 501.73 254.671 460.19 320.956L461.461 321.754Z" fill="#263E4B"/>
<path fill-rule="evenodd" clip-rule="evenodd" d="M546.869 102.734C541.201 101.331 537 96.2066 537 90.0995C537 82.9119 542.82 77.0851 550 77.0851C551.187 77.0851 552.338 77.2446 553.431 77.5432C555.552 75.5679 557.495 73.2191 558.912 70.4647C561.796 64.858 565.419 48.1961 565.419 48.1961L544.502 48.0955L544.5 48.0531H535.693L533.341 48.0417L533.333 48.0531H531.325L514.367 106.26C512.334 113.237 517.507 120.233 524.774 120.335L540.204 120.552C543.437 120.597 546.124 118.073 546.281 114.844L546.869 102.734ZM615.605 60.5669C627.699 60.5669 624.746 48.0531 624.746 48.0531H579.325C579.325 48.0531 603.512 60.5669 615.605 60.5669Z" fill="#263E4B"/>
<path fill-rule="evenodd" clip-rule="evenodd" d="M425.201 364.486C426.244 354.625 431.442 345.822 438.845 339.226L507.579 277.982C517.462 269.176 530.283 264.386 543.52 264.557L621.757 265.564C631.794 265.693 639.997 273.609 640.485 283.635C641.008 294.393 632.491 303.433 621.72 303.551L557.348 304.255C553.26 304.3 549.983 307.653 550.032 311.741C550.08 315.713 553.256 318.938 557.226 319.047L625.244 320.911C634.275 321.159 641.481 328.526 641.528 337.56C641.577 346.841 634.067 354.392 624.785 354.392H562.013C557.296 354.392 553.489 358.245 553.546 362.961C553.589 366.529 555.864 369.688 559.236 370.858L600.604 385.219C608.711 388.034 612.719 397.143 609.316 405.021C606.277 412.057 598.359 415.598 591.089 413.172L522.943 390.431L487.719 413.94C473.421 423.483 454.572 424.72 441.322 413.768C435.35 408.833 429.908 403.276 427.443 397.94C423.589 389.598 424.049 375.385 425.201 364.486Z" fill="white"/>
<path fill-rule="evenodd" clip-rule="evenodd" d="M430.262 403.825C442.896 422.798 468.501 427.924 487.452 415.276L523.437 391.26L590.135 413.517C598.398 416.275 607.395 412.248 610.851 404.244C610.993 403.917 611.122 403.583 611.239 403.246C613.846 395.722 609.866 387.507 602.35 384.898L561.096 370.576C557.285 369.253 554.711 365.679 554.663 361.641C554.663 361.602 554.663 361.602 554.662 361.563C554.662 358.017 557.534 355.143 561.076 355.143H625.5L625.591 355.142C635.07 355.092 642.713 347.359 642.663 337.869C642.612 328.256 634.952 320.416 625.352 320.153L557.769 318.3C554.123 318.201 551.207 315.236 551.163 311.585L551.163 311.578C551.124 307.989 553.999 305.047 557.584 305.008L623.063 304.291C623.3 304.289 623.536 304.282 623.773 304.27C634.158 303.764 642.168 294.925 641.662 284.528C641.13 273.583 632.184 264.942 621.239 264.801L543.895 263.806C530.482 263.633 517.489 268.488 507.468 277.417L444.383 333.628C444.107 333.672 443.867 333.869 443.782 334.155L443.778 334.167L439.587 337.902C430.742 345.783 425.214 356.73 424.119 368.533C422.926 381.383 423.926 391.287 427.145 398.255C428.039 400.19 429.081 402.052 430.262 403.825ZM508.466 278.538L445.094 335.005C437.587 360.29 435.975 377.19 440.171 385.591C444.317 393.893 449.539 400.494 456.655 405.066C465.919 411.018 477.647 412.888 492.342 409.72C492.547 409.675 492.751 409.72 492.913 409.827L523.215 389.603L590.61 412.093C598.134 414.604 606.327 410.936 609.475 403.648C609.601 403.355 609.717 403.056 609.822 402.754C612.157 396.013 608.592 388.654 601.858 386.317L560.605 371.995C556.196 370.465 553.219 366.33 553.163 361.659C553.163 361.611 553.163 361.611 553.162 361.563C553.162 357.188 556.706 353.641 561.076 353.641H625.5L625.583 353.641C634.233 353.595 641.209 346.537 641.163 337.877C641.117 329.074 634.102 321.895 625.311 321.654L557.727 319.802C553.277 319.68 549.717 316.06 549.663 311.603L549.663 311.595C549.615 307.176 553.154 303.555 557.568 303.506L623.047 302.79C623.264 302.787 623.482 302.781 623.7 302.77C633.258 302.305 640.629 294.17 640.164 284.601C639.67 274.449 631.372 266.434 621.22 266.303L543.876 265.307C530.837 265.14 518.206 269.859 508.466 278.538ZM438.829 386.262C434.54 377.674 435.95 361.252 442.979 336.889L440.584 339.023C432.023 346.651 426.672 357.247 425.612 368.671C424.442 381.281 425.416 390.936 428.507 397.625C429.368 399.489 430.372 401.283 431.51 402.992C433.129 405.424 434.969 407.619 436.986 409.57L449.632 401.431C445.293 397.283 441.789 392.188 438.829 386.262ZM450.773 402.483C452.353 403.886 454.039 405.17 455.845 406.33C464.907 412.153 476.216 414.204 490.119 411.691L486.62 414.027C471.235 424.295 451.3 422.406 438.121 410.625L450.773 402.483Z" fill="#263E4B"/>
<path fill-rule="evenodd" clip-rule="evenodd" d="M783.374 266.858C780.506 266.557 778.012 268.814 778.025 271.698C778.108 289.471 792.539 303.836 810.313 303.836H811.174C811.174 303.836 793.539 305.192 788.174 315.348C787.167 317.255 786.538 319.575 786.181 322.086C784.072 336.909 798.703 347.384 813.674 347.384L811.983 348.214C799.237 354.469 794.679 370.363 802.174 382.423C808.309 390.967 820.509 392.282 828.324 385.241L845.216 370.021C847.388 368.064 848.494 365.185 848.148 362.281C847.74 358.856 847.163 354.368 846.674 351.889C845.811 347.511 840.674 338.874 840.674 338.874C840.674 338.874 844.174 331.867 842.674 321.856C841.174 311.845 834.174 304.336 834.174 304.336C834.174 304.336 837.583 295.596 835.174 284.815C833.465 277.165 829.399 273.566 827.181 272.122C826.223 271.498 825.099 271.239 823.962 271.12L783.374 266.858Z" fill="white"/>
<path fill-rule="evenodd" clip-rule="evenodd" d="M787.836 314.497C782.013 325.522 786.221 339.186 797.234 345.015C800.483 346.735 804.102 347.634 807.778 347.634H810.838C799.408 353.98 794.838 368.257 800.656 380.139C801.021 380.885 801.424 381.613 801.863 382.319C807.823 390.623 819.323 392.507 827.577 386.568C828.123 386.175 828.647 385.752 829.147 385.302L840.174 375.366C846.471 369.693 849.432 361.19 848.023 352.827C847.925 352.246 847.829 351.718 847.735 351.243C847.151 348.28 845.19 343.992 841.851 338.339C844.112 333.591 844.737 327.888 843.741 321.244C842.742 314.572 839.947 308.708 835.366 303.669C837.543 297.81 837.829 291.299 836.231 284.15C835.581 281.24 834.677 278.748 833.515 276.677C831.332 272.783 827.396 270.191 822.96 269.725L795.046 266.794C786.395 265.886 778.646 272.17 777.739 280.831C777.679 281.402 777.65 281.975 777.653 282.549L777.662 284.568C777.712 295.362 786.467 304.086 797.25 304.086H802.295C795.338 305.978 790.506 309.442 787.836 314.497ZM779.23 280.988C780.051 273.152 787.062 267.466 794.889 268.288L822.803 271.219C826.756 271.634 830.262 273.943 832.207 277.412C833.293 279.348 834.147 281.703 834.768 284.478C836.298 291.329 836.033 297.526 833.982 303.084L811.502 302.643L811.499 302.584H797.25C787.293 302.584 779.209 294.529 779.162 284.561L779.153 282.542C779.15 282.023 779.176 281.504 779.23 280.988ZM810.942 304.134C799.768 305.104 792.539 308.807 789.163 315.199C783.727 325.491 787.654 338.246 797.935 343.688C800.968 345.293 804.347 346.132 807.778 346.132H813.884L840.468 337.754C842.614 333.285 843.216 327.861 842.258 321.466C841.283 314.961 838.53 309.274 833.989 304.388L833.985 304.586L810.942 304.134ZM812.625 348.394L814.279 347.582L840.657 339.269C843.857 344.704 845.726 348.806 846.264 351.534C846.354 351.994 846.448 352.509 846.544 353.077C847.868 360.933 845.086 368.921 839.171 374.25L828.144 384.186C827.684 384.599 827.203 384.988 826.701 385.349C819.12 390.804 808.557 389.073 803.109 381.484C802.724 380.862 802.346 380.179 802.002 379.478C796.362 367.958 801.117 354.041 812.625 348.394ZM788.246 284.201C787.716 276.479 790.759 272.377 797.228 272.285C797.642 272.279 797.983 272.611 797.989 273.025C797.994 273.44 797.664 273.781 797.249 273.787C791.721 273.865 789.267 277.172 789.742 284.099C790.219 291.056 792.681 294.178 797.191 293.863C797.605 293.834 797.963 294.146 797.992 294.56C798.021 294.973 797.709 295.332 797.296 295.361C791.811 295.745 788.773 291.892 788.246 284.201ZM796.267 327.615C795.2 319.948 797.95 315.644 804.396 315.102C804.809 315.067 805.172 315.374 805.207 315.787C805.242 316.2 804.935 316.563 804.523 316.598C799.013 317.062 796.796 320.532 797.753 327.408C798.714 334.315 801.388 337.258 805.865 336.629C806.275 336.572 806.655 336.858 806.712 337.268C806.77 337.679 806.484 338.059 806.074 338.116C800.629 338.882 797.33 335.25 796.267 327.615ZM814.91 358.887C808.577 360.211 806.373 364.818 808.366 372.298C810.351 379.747 814.068 382.949 819.38 381.525C819.78 381.418 820.017 381.007 819.91 380.606C819.803 380.206 819.391 379.968 818.991 380.075C814.624 381.245 811.611 378.65 809.816 371.911C808.028 365.203 809.805 361.488 815.217 360.357C815.623 360.272 815.883 359.874 815.798 359.468C815.713 359.062 815.315 358.802 814.91 358.887Z" fill="#263E4B"/>
<path fill-rule="evenodd" clip-rule="evenodd" d="M176.415 479.276C169.555 479.945 164.532 486.042 165.189 492.904L189.5 746.797H202L190.111 491.132C189.779 483.99 183.532 478.582 176.415 479.276Z" fill="white"/>
<path fill-rule="evenodd" clip-rule="evenodd" d="M188.819 747.075L164.475 492.838C163.761 485.38 169.221 478.752 176.678 478.024C176.895 478.003 177.113 477.988 177.332 477.977C184.463 477.646 190.513 483.158 190.845 490.289L202.786 747.075H188.819ZM165.968 492.695L190.182 745.575H201.215L189.346 490.359C189.053 484.055 183.705 479.183 177.401 479.476C177.208 479.485 177.016 479.499 176.823 479.517C170.19 480.164 165.333 486.06 165.968 492.695Z" fill="#263E4B"/>
<path fill-rule="evenodd" clip-rule="evenodd" d="M243.613 552.357C206.391 549.618 185.578 525.615 181.253 480.071C181.214 479.659 181.517 479.293 181.929 479.253C182.342 479.214 182.708 479.517 182.747 479.929C187.007 524.791 207.287 548.18 243.723 550.861C244.136 550.891 244.446 551.251 244.416 551.664C244.386 552.077 244.026 552.387 243.613 552.357ZM170.272 480.843C176.856 532.456 201.775 559.983 244.923 563.203C245.336 563.234 245.696 562.924 245.727 562.511C245.758 562.098 245.448 561.738 245.035 561.707C202.649 558.545 178.259 531.601 171.76 480.653C171.708 480.242 171.332 479.952 170.921 480.004C170.51 480.056 170.22 480.432 170.272 480.843ZM198.711 669.464C198.843 669.857 198.631 670.282 198.239 670.414C197.846 670.545 197.421 670.334 197.289 669.941C192.885 656.808 183.988 645.604 170.573 636.319C170.233 636.083 170.148 635.616 170.383 635.276C170.619 634.935 171.086 634.85 171.427 635.086C185.097 644.548 194.2 656.01 198.711 669.464ZM183.373 754.117C183.216 754.5 182.778 754.684 182.395 754.527C182.011 754.37 181.828 753.932 181.985 753.549C191.88 729.355 197.64 712.45 199.261 702.875C199.33 702.467 199.717 702.191 200.125 702.261C200.534 702.33 200.809 702.717 200.74 703.125C199.095 712.842 193.308 729.825 183.373 754.117ZM190.728 715.179C190.25 717.13 189.324 719.615 187.951 722.645C187.78 723.022 187.336 723.189 186.959 723.018C186.581 722.847 186.414 722.403 186.585 722.026C187.923 719.073 188.819 716.669 189.272 714.821C195.497 689.44 191.638 670.892 180.617 657.708C180.351 657.391 180.393 656.918 180.711 656.652C181.029 656.386 181.502 656.428 181.768 656.746C193.103 670.306 197.064 689.345 190.728 715.179Z" fill="#263E4B"/>
<path fill-rule="evenodd" clip-rule="evenodd" d="M573.572 74.5672C573.665 74.4578 573.851 74.2546 574.118 73.9891C574.567 73.5426 575.074 73.0956 575.627 72.6796C577.169 71.5172 578.747 70.8283 580.241 70.8283C582.537 70.8283 583.621 71.3019 584.836 72.6365C585.05 72.8716 585.273 73.1363 585.572 73.5051C585.604 73.5447 585.699 73.6632 585.817 73.809L585.817 73.81C586.025 74.0683 586.301 74.4122 586.419 74.5561C586.68 74.8776 587.153 74.9259 587.474 74.664C587.795 74.4021 587.843 73.9292 587.581 73.6077C587.468 73.4687 587.199 73.133 586.992 72.8755L586.991 72.8752L586.991 72.8751L586.99 72.8736L586.99 72.8734C586.87 72.7239 586.771 72.6011 586.737 72.5591C586.422 72.1699 586.182 71.8854 585.945 71.625C584.444 69.9765 582.957 69.3267 580.241 69.3267C578.364 69.3267 576.503 70.1395 574.725 71.4798C574.114 71.9397 573.556 72.4313 573.061 72.9233C572.762 73.221 572.547 73.4558 572.428 73.5967C572.16 73.9131 572.199 74.3869 572.515 74.6549C572.831 74.9229 573.305 74.8836 573.572 74.5672ZM580.5 82.0908C582.433 82.0908 584 80.2979 584 78.0863C584 75.8748 582.433 74.0819 580.5 74.0819C578.567 74.0819 577 75.8748 577 78.0863C577 80.2979 578.567 82.0908 580.5 82.0908ZM611.5 82.0908C613.433 82.0908 615 80.2979 615 78.0863C615 75.8748 613.433 74.0819 611.5 74.0819C609.567 74.0819 608 75.8748 608 78.0863C608 80.2979 609.567 82.0908 611.5 82.0908ZM606.095 73.9692C605.848 74.2342 605.675 74.437 605.59 74.5461C605.333 74.872 604.862 74.9284 604.536 74.6721C604.211 74.4158 604.154 73.9437 604.41 73.6178C604.521 73.4766 604.721 73.2414 605 72.9433C605.461 72.4502 605.98 71.9576 606.548 71.4964C608.211 70.1468 609.955 69.3267 611.724 69.3267C614.273 69.3267 615.675 69.9867 617.078 71.6458C617.298 71.9063 617.521 72.191 617.814 72.5803C617.846 72.6225 617.938 72.7462 618.05 72.8966L618.05 72.8968L618.051 72.8972C618.243 73.1547 618.493 73.4901 618.598 73.6289C618.848 73.9597 618.783 74.4305 618.452 74.6807C618.122 74.9309 617.652 74.8656 617.402 74.5349C617.293 74.3908 617.036 74.0467 616.843 73.7883C616.734 73.6422 616.646 73.5235 616.616 73.4838C616.339 73.1152 616.131 72.8506 615.933 72.6157C614.814 71.2917 613.829 70.8283 611.724 70.8283C610.363 70.8283 608.914 71.5099 607.492 72.663C606.981 73.0777 606.511 73.5237 606.095 73.9692ZM600.326 88.3477C599.911 88.3477 599.576 88.6838 599.576 89.0985C599.576 89.5132 599.911 89.8493 600.326 89.8493H607.326C607.853 89.8493 608.216 89.3186 608.025 88.8264L601.025 70.8065C600.874 70.42 600.44 70.2285 600.054 70.3788C599.668 70.5291 599.476 70.9643 599.627 71.3507L606.229 88.3477H600.326ZM602.934 98.7488C600.991 97.5577 598.941 97.5577 596.68 98.7703C596.315 98.9661 595.86 98.8285 595.664 98.463C595.469 98.0975 595.606 97.6424 595.971 97.4466C598.688 95.9896 601.305 95.9896 603.717 97.4681C604.07 97.6846 604.182 98.1469 603.965 98.5005C603.749 98.8542 603.287 98.9653 602.934 98.7488Z" fill="#263E4B"/>
<path fill-rule="evenodd" clip-rule="evenodd" d="M45 538.553L85 662.189L282.5 635.66V491L87.3907 530.065L85 547.062L72.2044 533.106L45 538.553Z" fill="white"/>
<path fill-rule="evenodd" clip-rule="evenodd" d="M72.0575 531.912C72.3147 531.861 72.5802 531.947 72.7575 532.141L84.479 544.926L86.6483 529.503C86.6927 529.187 86.9314 528.934 87.2438 528.872L282.353 489.807C282.817 489.714 283.25 490.069 283.25 490.542V635.202C283.25 635.577 282.972 635.895 282.6 635.945L85.1002 662.474C84.7408 662.523 84.3983 662.307 84.2867 661.962L44.2867 538.325C44.1487 537.899 44.4134 537.447 44.8531 537.359L72.0575 531.912ZM84.4475 547.111L71.9375 533.466L45.973 538.665L85.5211 660.904L281.75 634.546V491.457L88.0596 530.238L85.743 546.708C85.6547 547.336 84.8758 547.578 84.4475 547.111Z" fill="#263E4B"/>
<path fill-rule="evenodd" clip-rule="evenodd" d="M1 882.714H67.5C67.5 882.714 106.791 780.343 139.648 754.883C141.589 753.379 116.5 721.536 116.5 721.536C116.5 721.536 132.762 734.409 139 738.054C141.937 739.771 139.5 689 139.5 689L157.404 743.257C157.404 743.257 167.629 738.117 173 736.052C248.5 707.02 297 882.714 297 882.714H973" fill="white"/>
<path d="M138.622 738.463C139.335 738.88 139.979 738.493 140.33 737.742C140.558 737.255 140.733 736.515 140.876 735.497C141.147 733.557 141.302 730.535 141.344 726.418C141.418 719.132 141.138 708.392 140.503 694.194L156.692 743.253C156.836 743.688 157.332 743.894 157.741 743.688C164.537 740.272 169.716 737.879 173.269 736.513C223.011 717.386 264.048 765.924 296.277 882.675C296.367 883 296.663 883.225 297 883.225H973C973.414 883.225 973.75 882.889 973.75 882.475C973.75 882.061 973.414 881.725 973 881.725H297.571C265.155 764.614 223.577 715.561 172.731 735.113C169.26 736.448 164.301 738.729 157.844 741.959L140.212 688.526C139.939 687.697 138.709 687.925 138.751 688.797C139.563 705.707 139.927 718.244 139.844 726.402C139.802 730.46 139.65 733.427 139.39 735.289C139.283 736.053 139.159 736.617 139.031 736.962C134.846 734.457 127.482 729.034 116.965 720.709C116.268 720.157 115.36 721.062 115.911 721.761C124.265 732.365 130.368 740.44 134.215 745.983C136.128 748.74 137.48 750.864 138.266 752.347C138.644 753.06 138.884 753.613 138.987 753.991C139.007 754.064 139.02 754.127 139.028 754.176C117.076 771.301 93.0901 813.801 66.9846 881.725H1C0.585786 881.725 0.25 882.061 0.25 882.475C0.25 882.889 0.585786 883.225 1 883.225H67.5C67.8105 883.225 68.0889 883.034 68.2002 882.744C94.3469 814.619 118.344 772.1 140.107 755.237C141.337 754.284 139.831 751.443 135.447 745.128C132.195 740.443 127.353 733.975 120.92 725.72C129.189 732.151 135.084 736.396 138.622 738.463Z" fill="#263E4B"/>
<path fill-rule="evenodd" clip-rule="evenodd" d="M559.821 0.250244H588.226C600.413 0.250244 610.311 10.0584 610.474 22.2196L634.865 47.5318C635.325 48.0085 634.987 48.8039 634.326 48.8039H520.326C519.72 48.8039 519.364 48.123 519.709 47.6251L536.572 23.2893C536.699 10.5435 547.06 0.250244 559.821 0.250244ZM538.071 23.526C538.071 23.6789 538.025 23.8282 537.938 23.9539L521.759 47.3022H632.56L609.187 23.0461C609.052 22.9062 608.976 22.7193 608.976 22.5249C608.976 11.0523 599.686 1.7519 588.226 1.7519H559.821C547.809 1.7519 538.071 11.5005 538.071 23.526Z" fill="#263E4B"/>
<path fill-rule="evenodd" clip-rule="evenodd" d="M609.419 23.0254L537 24.0265L532 31.5348H617.5L609.419 23.0254Z" fill="#FF5364"/>
<path fill-rule="evenodd" clip-rule="evenodd" d="M537.49 22.7753L609.909 21.7742C610.118 21.7714 610.319 21.856 610.463 22.0077L618.544 30.5171C618.998 30.9953 618.659 31.7852 618 31.7852H532.5C531.901 31.7852 531.544 31.1169 531.876 30.6179L536.876 23.1096C537.013 22.9038 537.243 22.7788 537.49 22.7753ZM533.902 30.2836H616.252L609.602 23.2803L537.905 24.2714L533.902 30.2836Z" fill="#263E4B"/>
<path fill-rule="evenodd" clip-rule="evenodd" d="M406.5 862.953L398 903.999H431H559C559 903.999 547.928 880.608 533 871.463C518.072 862.318 478.5 862.953 478.5 862.953L492 792.876L411 793.377L410 845.935L406.5 862.953Z" fill="white"/>
<path fill-rule="evenodd" clip-rule="evenodd" d="M624 856.947V904.499L644 903.999H772C772 903.999 760.928 880.608 746 871.463C731.072 862.318 691.5 862.954 691.5 862.954L704 794L616.5 793.377L623 845.935L624 856.947Z" fill="white"/>
<path fill-rule="evenodd" clip-rule="evenodd" d="M410 846.435C410 846.435 421.483 848.295 428 860.951C434.517 873.608 435 894.989 435 894.989L400 894.488" fill="#FF5364"/>
<path fill-rule="evenodd" clip-rule="evenodd" d="M624 846.435C624 846.435 644.483 851.298 651 863.955C657.517 876.611 657 894.989 657 894.989L624 894.488V846.435Z" fill="#FF5364"/>
<path fill-rule="evenodd" clip-rule="evenodd" d="M410.264 793.132L433 792.991V792.621H491V792.633L492.91 792.621L481.849 850.034L485.669 839.56C485.83 839.12 486.03 838.695 486.267 838.291C488.435 834.596 493.188 833.359 496.883 835.527C497.506 835.892 498.066 836.353 498.544 836.894C501.053 839.726 500.79 844.055 497.958 846.563L480.181 862.306C483.527 861.474 491.742 859.363 503.811 856.221C504.212 856.117 504.622 856.357 504.726 856.758C504.83 857.159 504.59 857.568 504.189 857.673C495.397 859.961 489.057 861.601 484.872 862.666C507.958 862.771 524.119 865.643 533.392 871.324C543.483 877.506 552.239 888.463 559.678 904.179L560.185 905.25H397.079L405.766 863.303L409.252 846.352L410.264 793.132ZM411.736 794.623L443.59 794.426L440.658 814.645H428.5V816.145H440.44L434.758 855.332L436.243 855.547L441.956 816.145H456.756L450.759 855.326L452.242 855.553L458.273 816.145H473.768L469.839 837.351C467.469 834.4 463.232 833.555 459.871 835.527C459.249 835.892 458.688 836.353 458.21 836.894C455.701 839.726 455.964 844.055 458.796 846.563L466.816 853.666L466.513 855.303L467.988 855.576L468.127 854.826L477.085 862.76L461.978 863.205C461.564 863.217 461.238 863.563 461.251 863.977C461.263 864.391 461.608 864.717 462.022 864.704L478.938 864.206C479.005 864.212 479.071 864.207 479.136 864.195C505.048 863.827 522.888 866.648 532.609 872.603C539.876 877.055 546.466 884.098 552.372 893.738H435.739C435.256 866.523 426.331 850.501 410.761 845.873L411.736 794.623ZM410.571 847.383L407.235 863.606L400.995 893.738H434.239C433.764 867.266 425.233 851.881 410.571 847.383ZM400.684 895.238L398.922 903.75L557.81 903.75C556.347 900.726 554.834 897.889 553.273 895.238H400.684ZM491.091 794.132L478.611 858.914L478.377 859.556L471.085 839.56C471.057 839.483 471.028 839.407 470.998 839.332L475.293 816.145H486.5V814.645H475.571L479.359 794.205L491.091 794.132ZM477.831 794.214L461.615 794.315L458.503 814.645H474.046L477.831 794.214ZM460.096 794.324L445.107 794.417L442.173 814.645H456.985L460.096 794.324ZM480.062 859.315L479.807 860.634L496.963 845.44C499.175 843.481 499.381 840.1 497.422 837.888C497.048 837.466 496.61 837.106 496.124 836.821C493.144 835.072 489.309 836.07 487.56 839.05C487.369 839.376 487.208 839.719 487.078 840.074L480.062 859.315ZM469.439 839.511C469.364 839.354 469.282 839.201 469.194 839.05C467.445 836.07 463.61 835.072 460.63 836.821C460.144 837.106 459.706 837.466 459.333 837.888C457.374 840.1 457.579 843.481 459.791 845.44L467.135 851.945L469.439 839.511ZM468.446 853.105L477.282 860.93L470.461 842.227L468.446 853.105Z" fill="#263E4B"/>
<path fill-rule="evenodd" clip-rule="evenodd" d="M403.5 258.786H387L405 230.254" fill="#FF5364"/>
<path fill-rule="evenodd" clip-rule="evenodd" d="M616 792.624L615.644 792.622L622.756 846.533L623.25 904.506L623.256 905.25H773.684L773.178 904.179C765.738 888.463 756.982 877.506 746.891 871.324C737.553 865.603 721.228 862.731 697.879 862.664C702.063 861.6 708.402 859.96 717.189 857.673C717.589 857.568 717.83 857.159 717.725 856.758C717.621 856.357 717.212 856.117 716.811 856.221C707.316 858.693 700.207 860.526 695.977 861.601L712.957 846.563C715.789 844.055 716.052 839.726 713.544 836.894C713.066 836.353 712.505 835.892 711.883 835.527C708.188 833.359 703.434 834.596 701.266 838.291C701.029 838.695 700.829 839.12 700.668 839.56L693.484 859.261L704.889 793.132L676.5 792.97V792.622H616V792.624ZM692.619 864.195L692.415 864.198L692.084 864.203C692.035 864.209 691.986 864.21 691.937 864.206L675.022 864.704C674.608 864.717 674.262 864.391 674.25 863.977C674.238 863.563 674.564 863.217 674.978 863.205L690.085 862.76L671.796 846.563C668.963 844.055 668.701 839.726 671.209 836.894C671.687 836.353 672.248 835.892 672.87 835.527C676.565 833.359 681.318 834.596 683.487 838.291C683.724 838.695 683.924 839.12 684.084 839.56L691.739 860.551L703.11 794.622L663.607 794.396L665.646 814.646H677V816.146H665.797L669.746 855.365L668.253 855.516L664.289 816.146H648.771L652.247 855.374L650.753 855.507L647.265 816.146H630.06L634.852 849.197C649.566 856.236 657.204 871.125 657.735 893.738H765.871C759.966 884.098 753.376 877.056 746.108 872.603C736.422 866.67 718.677 863.848 692.917 864.191C692.817 864.214 692.715 864.214 692.619 864.195ZM656.234 893.738C655.722 872.169 648.691 857.963 635.114 851.004L635.742 855.333L634.257 855.548L633.484 850.217C630.67 848.941 627.594 847.953 624.257 847.254L624.657 893.738H656.234ZM624.154 845.701C627.416 846.359 630.442 847.28 633.23 848.466L628.544 816.146H620.258L624.154 845.701ZM625.359 794.177L617.356 794.132L620.06 814.646H628.327L625.359 794.177ZM624.743 903.75L624.67 895.238H766.772C768.333 897.889 769.846 900.726 771.309 903.75L624.743 903.75ZM646.835 794.3L662.098 794.388L664.138 814.646H648.638L646.835 794.3ZM626.876 794.186L645.328 794.292L647.132 814.646H629.842L626.876 794.186ZM682.193 839.05C682.384 839.376 682.546 839.719 682.675 840.074L690.281 860.93L672.79 845.44C670.578 843.481 670.373 840.1 672.332 837.888C672.705 837.466 673.143 837.106 673.629 836.821C676.61 835.072 680.444 836.07 682.193 839.05ZM702.078 840.074C702.207 839.719 702.368 839.376 702.56 839.05C704.309 836.07 708.143 835.072 711.123 836.821C711.609 837.106 712.047 837.466 712.421 837.888C714.38 840.1 714.175 843.481 711.963 845.44L694.472 860.93L702.078 840.074Z" fill="#263E4B"/>
<path fill-rule="evenodd" clip-rule="evenodd" d="M176.823 604.583C159.799 607.279 150.473 600.712 148.211 586.428C145.958 572.206 152.808 563.14 169.832 560.444C186.794 557.757 196.182 564.314 198.425 578.475C200.677 592.698 193.785 601.896 176.823 604.583ZM147.634 601.413L146.158 592.095L137.585 593.453L133.371 566.847L122.348 568.593L96.3111 599.99L97.787 609.308L128.038 604.517L129.145 611.506L140.167 609.76L139.06 602.771L147.634 601.413ZM126.562 595.199L108.191 598.109L124.096 579.628L126.562 595.199ZM187.402 580.221C188.674 588.252 185.032 593.793 175.357 595.326C165.681 596.858 160.515 592.775 159.233 584.683C157.961 576.652 161.623 571.233 171.298 569.701C180.973 568.168 186.14 572.252 187.402 580.221ZM252.71 575.219L254.185 584.537L245.612 585.895L246.719 592.884L235.697 594.63L234.59 587.641L204.339 592.432L202.863 583.114L228.9 551.717L239.922 549.971L244.136 576.577L252.71 575.219ZM233.114 578.323L214.743 581.232L230.648 562.751L233.114 578.323Z" fill="#FF5364"/>
<path fill-rule="evenodd" clip-rule="evenodd" d="M177.419 604.832C160.305 607.542 150.322 601.038 147.949 586.054C145.587 571.138 153.072 561.923 170.194 559.211C187.251 556.509 197.292 563.01 199.645 577.866C202.008 592.791 194.47 602.131 177.419 604.832ZM148.971 601.545L147.26 590.745L138.687 592.103L134.473 565.497L122.43 567.404L95.9965 599.28L97.6427 609.674L127.894 604.883L129.001 611.872L141.505 609.891L140.398 602.903L148.971 601.545ZM133.226 567.213L137.44 593.819L146.013 592.461L147.255 600.298L138.682 601.656L139.788 608.645L130.247 610.156L129.141 603.167L98.8896 607.958L97.5841 599.716L123.224 568.797L133.226 567.213ZM106.768 598.677L125.062 577.419L127.899 595.33L106.768 598.677ZM124.087 580.852L126.183 594.083L110.572 596.556L124.087 580.852ZM198.163 578.101C200.392 592.172 193.449 600.774 177.185 603.35C160.856 605.936 151.668 599.949 149.431 585.819C147.204 571.76 154.092 563.28 170.428 560.692C186.701 558.115 195.946 564.1 198.163 578.101ZM175.953 595.575C166.176 597.123 160.365 593.103 158.972 584.308C157.589 575.581 161.878 570.017 171.66 568.468C181.418 566.922 187.246 570.923 188.622 579.612C190.009 588.369 185.708 594.03 175.953 595.575ZM187.14 579.846C188.395 587.771 184.669 592.676 175.718 594.093C166.745 595.514 161.714 592.035 160.453 584.073C159.204 576.184 162.913 571.372 171.894 569.949C180.852 568.531 185.897 571.994 187.14 579.846ZM253.812 573.869L255.523 584.669L246.95 586.027L248.056 593.015L235.552 594.996L234.445 588.007L204.195 592.798L202.548 582.404L228.982 550.528L241.025 548.621L245.239 575.227L253.812 573.869ZM239.778 550.337L243.992 576.943L252.565 575.585L253.807 583.422L245.233 584.78L246.34 591.768L236.799 593.28L235.692 586.291L205.441 591.082L204.136 582.84L229.776 551.921L239.778 550.337ZM213.32 581.801L231.614 560.543L234.451 578.454L213.32 581.801ZM230.639 563.976L232.735 577.207L217.124 579.68L230.639 563.976Z" fill="#263E4B"/>
<path fill-rule="evenodd" clip-rule="evenodd" d="M516 159.927H459.547C430.851 159.927 407.216 182.493 405.857 211.188L405.037 228.498C404.973 228.791 404.896 229.108 404.805 229.449L386.866 257.885C386.551 258.384 386.91 259.036 387.5 259.036H403.591L402.751 276.77L404.249 276.841L406.53 228.693C406.64 228.173 406.712 227.715 406.747 227.317C408.003 213.011 413.589 200.495 423.538 190.233C434.11 179.328 447.291 184.799 463.392 207.167C463.634 207.504 464.103 207.58 464.439 207.338C464.775 207.095 464.851 206.626 464.609 206.29C448.042 183.274 433.89 177.399 422.462 189.187C414.881 197.007 409.768 206.113 407.117 216.292L407.355 211.259C408.677 183.365 431.652 161.428 459.547 161.428H516V159.927ZM403.662 257.535L404.863 232.169L388.861 257.535H403.662Z" fill="#263E4B"/>
<path fill-rule="evenodd" clip-rule="evenodd" d="M521.853 225.013C529.887 223.405 535.178 217.787 537.775 208.037L539.224 208.424C536.488 218.696 530.779 224.757 522.147 226.486L521.853 225.013ZM635.753 285.225C635.878 292.964 632.624 296.901 626.159 296.654C625.745 296.638 625.423 296.289 625.438 295.875C625.454 295.461 625.803 295.138 626.217 295.153C631.742 295.365 634.365 292.19 634.253 285.249C634.141 278.276 631.846 275.029 627.325 275.108C626.911 275.115 626.569 274.785 626.562 274.37C626.555 273.956 626.885 273.614 627.299 273.606C632.797 273.51 635.629 277.516 635.753 285.225ZM634.738 338.558C634.457 346.293 631.002 350.055 624.559 349.47C624.147 349.432 623.843 349.067 623.88 348.654C623.918 348.241 624.282 347.937 624.695 347.974C630.202 348.474 632.987 345.442 633.239 338.504C633.492 331.534 631.37 328.172 626.851 328.014C626.437 327.999 626.113 327.652 626.128 327.237C626.142 326.823 626.49 326.499 626.904 326.513C632.399 326.705 635.018 330.854 634.738 338.558ZM591.775 407.912C597.662 410.493 601.966 408.636 604.329 402.512C606.677 396.424 605.296 392.213 600.197 390.255C599.81 390.107 599.376 390.3 599.228 390.687C599.079 391.074 599.272 391.509 599.659 391.657C603.914 393.29 605 396.603 602.929 401.972C600.872 407.306 597.474 408.771 592.377 406.537C591.998 406.371 591.556 406.544 591.389 406.923C591.223 407.303 591.395 407.746 591.775 407.912Z" fill="#263E4B"/>
<path d="M453.776 227.945L455.776 235.454C455.882 235.854 456.293 236.092 456.693 235.986C457.094 235.879 457.332 235.467 457.225 235.067L455.225 227.558C455.118 227.158 454.707 226.919 454.307 227.026C453.907 227.133 453.669 227.545 453.776 227.945Z" fill="#263E4B"/>
<path d="M454.332 228.483L460.832 229.985C461.235 230.078 461.638 229.826 461.731 229.422C461.824 229.018 461.572 228.615 461.169 228.522L454.669 227.02C454.265 226.927 453.863 227.179 453.769 227.583C453.676 227.987 453.928 228.39 454.332 228.483Z" fill="#263E4B"/>
<path d="M736.574 233.237C731.517 227.131 722.726 226.486 715.479 231.259C712.655 233.119 710.596 235.767 709.629 238.794C707.191 246.42 716.77 265.909 738.38 297.751C738.613 298.094 739.079 298.183 739.422 297.95C739.765 297.717 739.854 297.25 739.621 296.907C718.362 265.583 708.836 246.201 711.057 239.251C711.918 236.558 713.761 234.188 716.303 232.514C722.948 228.137 730.884 228.72 735.419 234.195C735.683 234.514 736.156 234.558 736.475 234.294C736.794 234.029 736.838 233.556 736.574 233.237Z" fill="#263E4B"/>
</svg>
