<svg width="32" height="32" viewBox="0 0 32 32" fill="none" xmlns="http://www.w3.org/2000/svg">
<g clip-path="url(#clip0)">
<path d="M10.874 31.9222C10.9465 31.973 11.0327 32.0002 11.1216 32.0002C11.3619 31.9966 11.5533 31.7998 11.5497 31.5595C11.5488 31.4978 11.5342 31.4361 11.507 31.3781C8.84874 22.5026 12.7958 18.2254 14.4837 16.8677C14.3413 22.5969 17.4249 26.8941 17.5746 27.0827C17.6825 27.2296 17.873 27.2931 18.0489 27.2414C18.9414 26.9721 20.3109 26.0842 21.1543 25.5064C20.9185 27.8037 19.9526 31.3989 19.9417 31.4388C19.8801 31.6701 20.0161 31.9086 20.2483 31.9712C20.378 32.0057 20.5158 31.9776 20.6229 31.8968C20.8115 31.7508 25.2465 28.2745 26.675 22.4291C28.1198 16.5375 24.0738 10.7838 23.9151 10.5443C23.7773 10.3493 23.5061 10.3022 23.3111 10.4391C23.1841 10.5298 23.1152 10.6795 23.1288 10.8337C23.2893 13.7523 22.6073 16.6563 21.1634 19.1994C21.4273 17.6531 21.5625 15.3766 21.3022 12.059C20.6374 3.70135 13.0461 0.0753329 12.969 0.0408683C12.7514 -0.0607109 12.4938 0.0336127 12.3931 0.251282C12.3587 0.324746 12.346 0.408186 12.3559 0.488905C12.7958 3.92174 11.995 5.43817 9.85365 9.49046C8.9866 11.1248 7.91458 13.16 6.62851 15.8782C2.04293 25.579 10.7842 31.8615 10.874 31.9222ZM7.40577 16.2491C8.68368 13.5464 9.7557 11.5211 10.6137 9.89133C12.6162 6.10025 13.5377 4.35799 13.2956 1.2054C15.1222 2.29375 19.9218 5.742 20.4179 12.1215C20.8632 17.8327 20.1295 20.2796 19.656 21.2301C19.5871 21.3807 19.4982 21.5203 19.3921 21.6464C19.2252 21.8178 19.228 22.0926 19.3994 22.2595C19.5635 22.42 19.8238 22.4246 19.9934 22.2704C22.4413 19.545 23.858 16.0478 23.9958 12.3855C25.0787 14.379 26.7748 18.3342 25.8224 22.2423C24.8828 26.0878 22.5048 28.9075 21.1235 30.2843C21.5081 28.6917 22.0658 26.1304 22.0658 24.6521C22.0658 24.4126 21.8717 24.2176 21.6332 24.2176C21.5398 24.2176 21.45 24.2467 21.3756 24.302C21.3521 24.3201 19.3513 25.7985 18.0861 26.3073C17.3959 25.247 14.9743 21.0859 15.3961 16.0369C15.4169 15.7993 15.2401 15.5888 15.0015 15.5689C14.9136 15.5607 14.8256 15.5798 14.7494 15.6242C14.685 15.6641 7.75042 19.7572 10.3507 30.3614C8.25559 28.4259 4.03643 23.386 7.41212 16.2491H7.40577Z" fill="black"/>
</g>
<defs>
<clipPath id="clip0">
<rect width="32" height="32" fill="white"/>
</clipPath>
</defs>
</svg>
