<svg width="32" height="31" viewBox="0 0 32 31" fill="none" xmlns="http://www.w3.org/2000/svg">
<g clip-path="url(#clip0)">
<path d="M23.787 12.9665L25.6671 12.8542C25.6703 12.854 25.6737 12.8537 25.6771 12.8535C27.017 12.7469 28.2196 12.085 28.9769 11.037L30.4633 8.98058C31.757 7.19032 32.2582 5.02801 31.8741 2.89217C31.7987 2.47269 31.5712 2.08614 31.2338 1.80411C30.8961 1.52185 30.462 1.35516 30.0114 1.3349C27.7159 1.2313 25.5004 1.95997 23.7709 3.38578L21.784 5.02386C20.7716 5.85844 20.2188 7.06369 20.2672 8.3311C20.2674 8.33409 20.2674 8.33732 20.2677 8.34054L20.3749 10.114C20.4166 10.8054 20.1478 11.4875 19.6388 11.9844L4.11676 27.0216C3.70123 27.4302 3.48663 27.9908 3.51275 28.6002C3.54156 29.2711 3.86798 29.93 4.38605 30.3631C4.85406 30.7543 5.49738 30.9771 6.14044 30.9771C6.20929 30.9771 6.27814 30.9746 6.34674 30.9693C6.99152 30.9207 7.55622 30.6527 7.93854 30.2121L21.9051 13.881C22.3683 13.3436 23.0543 13.0103 23.787 12.9665ZM21.1595 13.3119L7.19416 29.6416C6.98078 29.8874 6.65265 30.0389 6.27033 30.0677C5.81549 30.102 5.34918 29.9593 5.02252 29.6862C4.69586 29.4129 4.48981 28.9935 4.4715 28.5636C4.45587 28.2024 4.57574 27.8771 4.8067 27.6501L20.3275 12.6141C21.0233 11.9351 21.3895 11.0052 21.3329 10.0627L21.2257 8.2938C21.1893 7.30175 21.6227 6.3585 22.4154 5.70488L24.4022 4.0668C25.9442 2.7957 27.9203 2.14669 29.9657 2.23832C30.1986 2.24891 30.4227 2.33502 30.5973 2.48098C30.7719 2.62672 30.8893 2.82655 30.9283 3.0432C31.2706 4.94742 30.8239 6.8749 29.6705 8.47085L28.1842 10.5275C27.5912 11.348 26.65 11.8667 25.6012 11.9517L23.7262 12.0636C22.7272 12.1234 21.7921 12.5779 21.1595 13.3119Z" fill="black"/>
<path d="M31.1138 26.9077L20.7063 17.9686C20.5105 17.8003 20.2073 17.8136 20.0286 17.9983C19.8504 18.1829 19.8645 18.4691 20.0603 18.6374L30.4651 27.5744C30.7127 27.7902 30.8531 28.1081 30.8606 28.4696C30.8697 28.8996 30.6907 29.3299 30.3819 29.6212C30.0733 29.9122 29.6177 30.0814 29.1607 30.0726C28.7774 30.0655 28.4402 29.9331 28.2139 29.7022L18.9399 20.1007C18.7615 19.9159 18.458 19.9027 18.2622 20.0708C18.0664 20.2391 18.0522 20.5253 18.2307 20.7099L27.5069 30.3137C27.9146 30.7295 28.4952 30.9652 29.1419 30.9772C29.1587 30.9774 29.1753 30.9777 29.1922 30.9777C29.8873 30.9777 30.5823 30.7118 31.0601 30.261C31.5499 29.7991 31.8338 29.123 31.8196 28.4518C31.8069 27.842 31.5572 27.2945 31.1138 26.9077Z" fill="black"/>
<path d="M5.78867 12.8805C6.58262 13.5702 7.61412 13.9635 8.69322 13.9879C8.69664 13.9881 8.70006 13.9881 8.70323 13.9881L10.587 13.9936C11.3214 13.9957 12.0272 14.2897 12.5226 14.7987L13.3524 15.6577C13.4471 15.7558 13.5768 15.8055 13.7071 15.8055C13.8224 15.8055 13.9381 15.7666 14.0299 15.6876C14.2259 15.5193 14.2401 15.2332 14.0616 15.0485L13.2306 14.1884C12.5538 13.4926 11.5914 13.092 10.5902 13.0888L8.71153 13.0833C7.87681 13.0633 7.07871 12.7619 6.46031 12.234L1.00106 6.11402C0.9454 6.0514 0.94955 5.96069 1.01083 5.9029C1.05282 5.86307 1.10214 5.85732 1.12777 5.85732C1.15341 5.85732 1.20272 5.86307 1.24496 5.9029L6.21421 10.5892C6.70542 11.0524 7.50474 11.0524 7.99595 10.589L8.57994 10.0385V10.0383L9.61681 9.06049C9.61681 9.06049 9.61705 9.06049 9.61705 9.06026L9.6173 9.06003L10.201 8.50955C10.6922 8.04633 10.6922 7.29256 10.201 6.82934L5.23179 2.14326C5.16733 2.08248 5.16733 1.98325 5.23179 1.92247C5.29307 1.86468 5.38926 1.86077 5.45566 1.91326L11.9454 7.06164C12.5055 7.64458 12.8251 8.39743 12.8463 9.18436L12.8519 10.9562C12.8553 11.9001 13.2804 12.8077 14.0192 13.4473L14.9083 14.2109C15.1044 14.3792 15.4076 14.3659 15.5861 14.1812C15.7643 13.9964 15.7501 13.7104 15.5543 13.5421L14.6666 12.7796C14.1254 12.3113 13.8138 11.6455 13.8114 10.9532L13.8055 9.17676C13.8055 9.17354 13.8055 9.17031 13.8053 9.16709C13.7794 8.14948 13.3624 7.17676 12.631 6.42805C12.6173 6.41401 12.6027 6.40066 12.587 6.38822L6.0731 1.22096C5.6229 0.863647 4.96958 0.890354 4.55356 1.28266C4.11484 1.69639 4.11484 2.36935 4.55356 2.78284L9.52281 7.46915C9.64 7.57966 9.64 7.75947 9.52281 7.86998L9.27794 8.10067L3.7396 2.87815C3.55234 2.70134 3.24863 2.70134 3.06137 2.87815C2.87412 3.05474 2.87412 3.34114 3.06137 3.51773L8.59971 8.74047L8.24083 9.07868L2.70248 3.85616C2.51523 3.67958 2.21152 3.67958 2.02426 3.85616C1.83676 4.03275 1.83676 4.31916 2.02426 4.49574L7.56236 9.71849L7.31773 9.94941C7.20054 10.0599 7.00987 10.0599 6.89268 9.94941L1.92319 5.26332C1.71078 5.06303 1.42831 4.95252 1.12777 4.95252C0.827235 4.95252 0.544764 5.06303 0.332361 5.26332C-0.0836555 5.65564 -0.111732 6.27173 0.266931 6.6965L5.74668 12.839C5.75962 12.8537 5.77378 12.8676 5.78867 12.8805Z" fill="black"/>
</g>
<defs>
<clipPath id="clip0">
<rect width="32" height="30.1176" fill="white" transform="translate(0 0.881836)"/>
</clipPath>
</defs>
</svg>
