<svg width="64" height="64" viewBox="0 0 64 64" fill="none" xmlns="http://www.w3.org/2000/svg">
<path d="M31.4576 62.7971C48.8311 62.7971 62.9152 48.7395 62.9152 31.3986C62.9152 14.0576 48.8311 0 31.4576 0C14.084 0 0 14.0576 0 31.3986C0 48.7395 14.084 62.7971 31.4576 62.7971Z" fill="#B49ACA"/>
<path d="M31.4578 51.9701C42.8405 51.9701 52.0679 42.7599 52.0679 31.3986C52.0679 20.0373 42.8405 10.8271 31.4578 10.8271C20.0751 10.8271 10.8477 20.0373 10.8477 31.3986C10.8477 42.7599 20.0751 51.9701 31.4578 51.9701Z" fill="#ECF0F1"/>
<path d="M45.0172 64C55.5012 64 64.0002 55.517 64.0002 45.0526C64.0002 34.5882 55.5012 26.1052 45.0172 26.1052C34.5332 26.1052 26.0342 34.5882 26.0342 45.0526C26.0342 55.517 34.5332 64 45.0172 64Z" fill="#FF5364"/>
<path d="M14.1019 12.03V23.9398C14.1035 25.9145 12.764 27.6392 10.8477 28.1299C10.4943 28.2266 10.1293 28.274 9.76292 28.2707H5.42394C5.05758 28.274 4.69253 28.2266 4.3392 28.1299C2.42284 27.6392 1.08337 25.9145 1.08496 23.9398V12.03C1.08398 11.3999 1.36188 10.8016 1.84428 10.3951C2.69808 9.64794 3.98764 9.69543 4.78394 10.5034C5.19599 10.9045 5.427 11.4555 5.42394 12.03C5.42694 10.9191 6.26935 9.9895 7.37648 9.87542C7.52075 9.86095 7.66611 9.86095 7.81038 9.87542C8.30784 9.92571 8.77208 10.1478 9.12292 10.5034C9.53497 10.9045 9.76598 11.4555 9.76292 12.03C9.76649 10.8356 10.7357 9.86816 11.9324 9.8646C12.452 9.86162 12.9543 10.0506 13.3426 10.3951C13.385 10.4282 13.4249 10.4644 13.4619 10.5034C13.8739 10.9045 14.105 11.4555 14.1019 12.03Z" fill="#3B97D3"/>
<path d="M10.8473 28.1298V54.2556C10.8473 56.0495 9.39037 57.5037 7.5931 57.5037C5.79584 57.5037 4.33887 56.0495 4.33887 54.2556V28.1298C4.6922 28.2265 5.05725 28.2739 5.42361 28.2706H9.76259C10.129 28.2739 10.494 28.2265 10.8473 28.1298Z" fill="#2980BA"/>
<path d="M23.8644 33.6841V54.2556C23.8644 56.0495 22.4074 57.5037 20.6102 57.5037C18.8129 57.5037 17.356 56.0495 17.356 54.2556V33.6841H23.8644Z" fill="#2980BA"/>
<path d="M23.8644 10.9473V33.6842H17.356V26.1052C17.356 11.5644 19.7858 9.86456 22.7797 9.86456C23.3788 9.86456 23.8644 10.3493 23.8644 10.9473Z" fill="#3B97D3"/>
<path d="M35.5593 39.504C35.3795 39.2797 35.1178 39.1358 34.8317 39.1042C34.5457 39.0725 34.2588 39.1556 34.0341 39.3351L30.3731 42.2584V40.1807C30.3731 39.5827 29.8874 39.098 29.2884 39.098C28.6893 39.098 28.2036 39.5827 28.2036 40.1807V48.8424C28.2036 49.4404 28.6893 49.9251 29.2884 49.9251C29.8874 49.9251 30.3731 49.4404 30.3731 48.8424V46.7647L34.0341 49.688C34.502 50.0617 35.1848 49.9861 35.5593 49.5191C35.9337 49.0521 35.8579 48.3705 35.39 47.9968L31.0239 44.5116L35.389 41.0263C35.6139 40.847 35.7582 40.5859 35.7901 40.3004C35.8221 40.0149 35.739 39.7284 35.5593 39.504Z" fill="white"/>
<path d="M40.1356 41.263H41.2203C41.8194 41.263 42.3051 41.7478 42.3051 42.3457C42.3051 42.9437 42.7907 43.4284 43.3898 43.4284C43.9889 43.4284 44.4746 42.9437 44.4746 42.3457C44.4746 40.5518 43.0176 39.0976 41.2203 39.0976H40.1356C38.3383 39.0976 36.8813 40.5518 36.8813 42.3457V46.6766C36.8813 48.4705 38.3383 49.9247 40.1356 49.9247H41.2203C43.0176 49.9247 44.4746 48.4705 44.4746 46.6766C44.4746 46.0786 43.9889 45.5939 43.3898 45.5939C42.7907 45.5939 42.3051 46.0786 42.3051 46.6766C42.3051 47.2745 41.8194 47.7593 41.2203 47.7593H40.1356C39.5365 47.7593 39.0508 47.2745 39.0508 46.6766V42.3457C39.0508 41.7478 39.5365 41.263 40.1356 41.263Z" fill="white"/>
<path d="M50.9145 39.8004C50.7563 39.3768 50.351 39.0959 49.8981 39.0959C49.4452 39.0959 49.0399 39.3768 48.8817 39.8004L45.6275 48.4621C45.4918 48.8245 45.5602 49.2317 45.8069 49.5301C46.0535 49.8286 46.441 49.973 46.8233 49.9091C47.2056 49.8451 47.5247 49.5824 47.6603 49.22L48.2092 47.7594H51.5871L52.1359 49.2221C52.2948 49.645 52.6999 49.9251 53.1524 49.9248C53.2826 49.9243 53.4118 49.9012 53.5342 49.8566C53.8037 49.7557 54.0219 49.5521 54.141 49.2906C54.26 49.029 54.27 48.731 54.1688 48.4621L50.9145 39.8004ZM49.0227 45.594L49.8981 43.264L50.7735 45.594H49.0227Z" fill="white"/>
<path d="M61.8307 47.7593H57.4918V40.1803C57.4918 39.5824 57.0061 39.0976 56.407 39.0976C55.8079 39.0976 55.3223 39.5824 55.3223 40.1803V48.842C55.3223 49.44 55.8079 49.9247 56.407 49.9247H61.8307C62.4298 49.9247 62.9155 49.44 62.9155 48.842C62.9155 48.244 62.4298 47.7593 61.8307 47.7593Z" fill="white"/>
<path d="M5.42388 12.03V20.6917C5.42388 21.2896 4.93823 21.7744 4.33914 21.7744C3.74005 21.7744 3.25439 21.2896 3.25439 20.6917V9.86456C4.44888 9.87341 5.41502 10.8377 5.42388 12.03Z" fill="#285680"/>
<path d="M11.9322 9.86456V20.6917C11.9322 21.2896 11.4465 21.7744 10.8474 21.7744C10.2484 21.7744 9.7627 21.2896 9.7627 20.6917V12.03C9.76627 10.8355 10.7355 9.86813 11.9322 9.86456Z" fill="#285680"/>
</svg>
