<svg width="32" height="32" viewBox="0 0 32 32" fill="none" xmlns="http://www.w3.org/2000/svg">
<g clip-path="url(#clip0)">
<path d="M18.1333 29.8643C24.6129 29.8643 29.8658 24.6115 29.8658 18.1319C29.8658 11.6522 24.6129 6.39941 18.1333 6.39941C11.6537 6.39941 6.40085 11.6522 6.40085 18.1319C6.40818 24.6084 11.6567 29.857 18.1333 29.8643ZM9.06731 17.5986H7.49463C7.77261 12.1368 12.1382 7.77118 17.6 7.4932V9.06588C17.6 9.36039 17.8388 9.59917 18.1333 9.59917C18.4278 9.59917 18.6666 9.36039 18.6666 9.06588V7.4932C24.1284 7.77118 28.494 12.1368 28.772 17.5986H26.666C26.3715 17.5986 26.1327 17.8374 26.1327 18.1319C26.1327 18.4264 26.3715 18.6652 26.666 18.6652H28.772C28.494 24.1269 24.1284 28.4926 18.6666 28.7705V27.1978C18.6666 26.9033 18.4278 26.6646 18.1333 26.6646C17.8388 26.6646 17.6 26.9033 17.6 27.1978V28.7705C12.1383 28.4926 7.77261 24.1269 7.49463 18.6652H9.06731C9.36183 18.6652 9.60061 18.4264 9.60061 18.1319C9.60061 17.8374 9.36183 17.5986 9.06731 17.5986Z" fill="black"/>
<path d="M30.1404 11.2084C29.9814 10.9329 29.813 10.6631 29.6354 10.3992L30.9521 9.08252C31.1603 8.87427 31.1603 8.53669 30.9521 8.32844L27.939 5.31533C27.7307 5.10715 27.3931 5.10715 27.1849 5.31533L25.8661 6.6299C23.7327 5.18961 21.2388 4.37547 18.6666 4.27968V1.06659H22.3996C22.6942 1.06659 22.9329 0.827805 22.9329 0.533293C22.9329 0.238782 22.6942 0 22.3996 0H13.867C13.5724 0 13.3337 0.238782 13.3337 0.533293C13.3337 0.827805 13.5724 1.06659 13.867 1.06659H17.6V4.28448C12.8438 4.46607 8.51402 7.0772 6.1342 11.1992H3.20108C2.90657 11.1992 2.66779 11.4379 2.66779 11.7325C2.66779 12.027 2.90657 12.2657 3.20108 12.2657H6.40084C6.41471 12.2657 6.42644 12.2588 6.44031 12.2577C6.63249 12.2602 6.81075 12.1581 6.90587 11.9911C10.2989 5.78997 18.0764 3.51347 24.2776 6.90642C30.4788 10.2994 32.7552 18.077 29.3623 24.2782C25.9692 30.4793 18.1917 32.7558 11.9905 29.3629C9.84452 28.1887 8.07998 26.4242 6.90581 24.2782C6.81161 24.1105 6.63363 24.0073 6.44131 24.0089C6.42744 24.0089 6.41518 24.0009 6.40078 24.0009H3.20102C2.90651 24.0009 2.66772 24.2397 2.66772 24.5342C2.66772 24.8287 2.90651 25.0675 3.20102 25.0675H6.13413C9.96124 31.6966 18.4377 33.9681 25.0668 30.141C31.6959 26.3139 33.9674 17.8375 30.1404 11.2084ZM26.7375 7.27079L27.5619 6.44645L29.8209 8.70548L28.9953 9.53102C28.3314 8.69401 27.5739 7.93567 26.7375 7.27079Z" fill="black"/>
<path d="M5.33427 18.1319C5.33427 17.8374 5.09549 17.5986 4.80098 17.5986H0.534636C0.240125 17.5986 0.00134277 17.8374 0.00134277 18.1319C0.00134277 18.4264 0.240125 18.6652 0.534636 18.6652H4.80098C5.09549 18.6652 5.33427 18.4264 5.33427 18.1319Z" fill="black"/>
<path d="M1.60123 15.465H5.33428C5.62879 15.465 5.86757 15.2262 5.86757 14.9317C5.86757 14.6372 5.62879 14.3984 5.33428 14.3984H1.60123C1.30671 14.3984 1.06793 14.6372 1.06793 14.9317C1.06793 15.2262 1.30665 15.465 1.60123 15.465Z" fill="black"/>
<path d="M5.86757 21.3321C5.86757 21.0376 5.62879 20.7988 5.33428 20.7988H1.60123C1.30671 20.7988 1.06793 21.0376 1.06793 21.3321C1.06793 21.6266 1.30671 21.8654 1.60123 21.8654H5.33428C5.62879 21.8654 5.86757 21.6266 5.86757 21.3321Z" fill="black"/>
<path d="M16.6894 21.7091C16.8977 21.9173 17.2353 21.9173 17.4435 21.7091L24.8563 14.2963C25.061 14.0845 25.0551 13.7469 24.8432 13.5423C24.6366 13.3427 24.3089 13.3427 24.1022 13.5423L17.0665 20.578L13.8934 17.4049C13.6815 17.2003 13.3439 17.2061 13.1393 17.418C12.9397 17.6246 12.9397 17.9523 13.1393 18.159L16.6894 21.7091Z" fill="black"/>
</g>
<defs>
<clipPath id="clip0">
<rect width="32" height="32" fill="white"/>
</clipPath>
</defs>
</svg>
